<svg width="30" height="33" viewBox="0 0 30 33" fill="none" xmlns="http://www.w3.org/2000/svg">
<mask id="mask0_1555_3644" style="mask-type:alpha" maskUnits="userSpaceOnUse" x="3" y="3" width="24" height="27">
<path fill-rule="evenodd" clip-rule="evenodd" d="M22.5 22.1238C21.55 22.1238 20.7 22.5273 20.05 23.1595L11.1375 17.577C11.2 17.2676 11.25 16.9583 11.25 16.6354C11.25 16.3126 11.2 16.0032 11.1375 15.6938L19.95 10.1651C20.625 10.8377 21.5125 11.2547 22.5 11.2547C24.575 11.2547 26.25 9.45214 26.25 7.21914C26.25 4.98614 24.575 3.18359 22.5 3.18359C20.425 3.18359 18.75 4.98614 18.75 7.21914C18.75 7.54198 18.8 7.85138 18.8625 8.16077L10.05 13.6895C9.375 13.0169 8.4875 12.5999 7.5 12.5999C5.425 12.5999 3.75 14.4024 3.75 16.6354C3.75 18.8684 5.425 20.671 7.5 20.671C8.4875 20.671 9.375 20.254 10.05 19.5814L18.95 25.1773C18.8875 25.4598 18.85 25.7557 18.85 26.0517C18.85 28.2174 20.4875 29.9796 22.5 29.9796C24.5125 29.9796 26.15 28.2174 26.15 26.0517C26.15 23.8859 24.5125 22.1238 22.5 22.1238V22.1238Z" fill="white"/>
</mask>
<g mask="url(#mask0_1555_3644)">
<rect x="-16.25" y="-16.9961" width="62.5" height="67.2591" fill="#FFD058"/>
<mask id="mask1_1555_3644" style="mask-type:alpha" maskUnits="userSpaceOnUse" x="-17" y="-17" width="64" height="68">
<rect x="-16.25" y="-16.9961" width="62.5" height="67.2591" fill="white"/>
</mask>
<g mask="url(#mask1_1555_3644)">
</g>
</g>
</svg>
