<svg width="329" height="169" viewBox="0 0 329 169" fill="none" xmlns="http://www.w3.org/2000/svg">
<path d="M94.9713 32L97.8413 3.125H103.861L110.756 21.185L117.651 3.125H123.671L126.541 32H120.871L119.086 13.31L112.489 31.2825H109.006L102.426 13.31L100.624 32H94.9713ZM139.781 32.56C138.136 32.56 136.637 32.1517 135.284 31.335C133.942 30.5067 132.874 29.375 132.081 27.94C131.299 26.4933 130.909 24.8483 130.909 23.005C130.909 21.2083 131.288 19.5983 132.046 18.175C132.804 16.74 133.849 15.6083 135.179 14.78C136.52 13.94 138.054 13.52 139.781 13.52C141.053 13.52 142.237 13.765 143.334 14.255C144.442 14.7333 145.346 15.4042 146.046 16.2675V14.08H151.419V32H146.046V29.6375C145.229 30.5825 144.29 31.3058 143.229 31.8075C142.167 32.3092 141.018 32.56 139.781 32.56ZM141.374 27.9925C142.307 27.9925 143.135 27.7825 143.859 27.3625C144.582 26.9308 145.148 26.3417 145.556 25.595C145.964 24.8483 146.169 23.9967 146.169 23.04C146.169 22.0717 145.959 21.22 145.539 20.485C145.13 19.7383 144.564 19.155 143.841 18.735C143.129 18.3033 142.307 18.0875 141.374 18.0875C140.452 18.0875 139.629 18.3033 138.906 18.735C138.183 19.155 137.611 19.7383 137.191 20.485C136.771 21.2317 136.561 22.0833 136.561 23.04C136.561 23.9967 136.765 24.8483 137.174 25.595C137.594 26.3417 138.165 26.9308 138.889 27.3625C139.612 27.7825 140.44 27.9925 141.374 27.9925ZM162.677 32.56C161.16 32.56 159.801 32.3208 158.599 31.8425C157.409 31.3642 156.417 30.6642 155.624 29.7425L157.882 26.1375C158.628 26.9308 159.41 27.5375 160.227 27.9575C161.043 28.3775 161.86 28.5875 162.677 28.5875C163.132 28.5875 163.522 28.5117 163.849 28.36C164.187 28.2083 164.45 27.9925 164.637 27.7125C164.835 27.4208 164.934 27.0708 164.934 26.6625C164.934 26.1958 164.8 25.8283 164.532 25.56C164.275 25.2917 163.878 25.0467 163.342 24.825C162.805 24.5917 162.111 24.3 161.259 23.95C160.536 23.6467 159.842 23.3025 159.177 22.9175C158.512 22.5325 157.969 22.0425 157.549 21.4475C157.141 20.8525 156.937 20.1 156.937 19.19C156.937 18.0817 157.246 17.1075 157.864 16.2675C158.482 15.4158 159.334 14.7508 160.419 14.2725C161.516 13.7942 162.776 13.555 164.199 13.555C165.086 13.555 166.013 13.6892 166.982 13.9575C167.962 14.2258 169.006 14.6342 170.114 15.1825L168.277 18.63C166.772 17.6617 165.424 17.1775 164.234 17.1775C163.569 17.1775 163.038 17.3233 162.642 17.615C162.245 17.9067 162.047 18.2742 162.047 18.7175C162.047 19.1375 162.251 19.505 162.659 19.82C163.079 20.1233 163.587 20.3975 164.182 20.6425C164.788 20.8758 165.366 21.0917 165.914 21.29C166.812 21.6167 167.606 21.9783 168.294 22.375C168.994 22.7717 169.542 23.2908 169.939 23.9325C170.336 24.5625 170.534 25.4083 170.534 26.47C170.534 27.765 170.219 28.8675 169.589 29.7775C168.971 30.6758 168.072 31.3642 166.894 31.8425C165.727 32.3208 164.322 32.56 162.677 32.56ZM181.382 32.56C179.597 32.56 178.208 31.9942 177.217 30.8625C176.225 29.7192 175.729 28.1267 175.729 26.085V18.1575H173.332V14.08H175.729V7.36H181.102V14.08H185.039V18.1575H181.102V25.7C181.102 26.3767 181.236 26.89 181.504 27.24C181.784 27.59 182.175 27.765 182.677 27.765C183.237 27.765 183.773 27.5783 184.287 27.205L185.634 31.51C185.027 31.8367 184.345 32.0933 183.587 32.28C182.84 32.4667 182.105 32.56 181.382 32.56ZM198.887 32.56C196.951 32.56 195.212 32.1458 193.672 31.3175C192.144 30.4775 190.931 29.34 190.032 27.905C189.134 26.47 188.685 24.8483 188.685 23.04C188.685 21.71 188.936 20.4675 189.437 19.3125C189.951 18.1575 190.662 17.1483 191.572 16.285C192.482 15.41 193.538 14.7333 194.74 14.255C195.942 13.765 197.242 13.52 198.642 13.52C200.509 13.52 202.142 13.9108 203.542 14.6925C204.954 15.4625 206.051 16.5358 206.832 17.9125C207.626 19.2892 208.022 20.8933 208.022 22.725C208.022 22.8767 208.017 23.0108 208.005 23.1275C208.005 23.2325 207.987 23.4367 207.952 23.74H194.215C194.215 24.65 194.419 25.4433 194.827 26.12C195.247 26.7967 195.831 27.3275 196.577 27.7125C197.324 28.0858 198.193 28.2725 199.185 28.2725C200.118 28.2725 200.941 28.0917 201.652 27.73C202.376 27.3683 203.07 26.7908 203.735 25.9975L207.602 27.94C206.762 29.3867 205.572 30.5183 204.032 31.335C202.492 32.1517 200.777 32.56 198.887 32.56ZM194.407 20.765H202.737C202.621 20.0767 202.37 19.4817 201.985 18.98C201.612 18.4783 201.133 18.0933 200.55 17.825C199.967 17.5567 199.307 17.4225 198.572 17.4225C197.791 17.4225 197.102 17.5567 196.507 17.825C195.912 18.0933 195.434 18.4783 195.072 18.98C194.711 19.4817 194.489 20.0767 194.407 20.765ZM212.802 32V14.08H218.174V16.6525C218.839 15.6492 219.65 14.8792 220.607 14.3425C221.575 13.7942 222.613 13.52 223.722 13.52C224.352 13.52 225.005 13.6133 225.682 13.8C226.358 13.9867 226.924 14.2258 227.379 14.5175L225.139 19.05C224.743 18.7817 224.276 18.5717 223.739 18.42C223.214 18.2567 222.724 18.175 222.269 18.175C221.569 18.175 220.904 18.3558 220.274 18.7175C219.644 19.0792 219.137 19.5517 218.752 20.135C218.367 20.7067 218.174 21.325 218.174 21.99V32H212.802ZM111.474 74.56C109.293 74.56 107.245 74.175 105.332 73.405C103.418 72.635 101.733 71.5675 100.274 70.2025C98.8158 68.8258 97.6783 67.2333 96.8617 65.425C96.045 63.6167 95.6367 61.6742 95.6367 59.5975C95.6367 57.5092 96.045 55.5608 96.8617 53.7525C97.69 51.9325 98.8275 50.34 100.274 48.975C101.733 47.5983 103.413 46.525 105.314 45.755C107.228 44.985 109.269 44.6 111.439 44.6C113.213 44.6 114.898 44.8508 116.497 45.3525C118.107 45.8542 119.483 46.5133 120.627 47.33L118.177 52.1425C117.395 51.5242 116.444 51.04 115.324 50.69C114.204 50.34 113.032 50.165 111.807 50.165C110.372 50.165 109.042 50.4042 107.817 50.8825C106.603 51.3608 105.542 52.0258 104.632 52.8775C103.733 53.7292 103.033 54.7267 102.532 55.87C102.03 57.0133 101.779 58.25 101.779 59.58C101.779 60.91 102.03 62.1467 102.532 63.29C103.033 64.4333 103.733 65.4308 104.632 66.2825C105.542 67.1342 106.603 67.7992 107.817 68.2775C109.042 68.7558 110.372 68.995 111.807 68.995C113.032 68.995 114.204 68.82 115.324 68.47C116.444 68.12 117.395 67.6358 118.177 67.0175L120.627 71.83C119.53 72.6233 118.183 73.2767 116.584 73.79C114.986 74.3033 113.283 74.56 111.474 74.56ZM124.464 74V43.9H129.837V74H124.464ZM143.626 74.56C141.981 74.56 140.482 74.1517 139.129 73.335C137.787 72.5067 136.72 71.375 135.926 69.94C135.145 68.4933 134.754 66.8483 134.754 65.005C134.754 63.2083 135.133 61.5983 135.891 60.175C136.65 58.74 137.694 57.6083 139.024 56.78C140.365 55.94 141.9 55.52 143.626 55.52C144.898 55.52 146.082 55.765 147.179 56.255C148.287 56.7333 149.191 57.4042 149.891 58.2675V56.08H155.264V74H149.891V71.6375C149.075 72.5825 148.135 73.3058 147.074 73.8075C146.012 74.3092 144.863 74.56 143.626 74.56ZM145.219 69.9925C146.152 69.9925 146.98 69.7825 147.704 69.3625C148.427 68.9308 148.993 68.3417 149.401 67.595C149.81 66.8483 150.014 65.9967 150.014 65.04C150.014 64.0717 149.804 63.22 149.384 62.485C148.975 61.7383 148.41 61.155 147.686 60.735C146.975 60.3033 146.152 60.0875 145.219 60.0875C144.297 60.0875 143.475 60.3033 142.751 60.735C142.028 61.155 141.456 61.7383 141.036 62.485C140.616 63.2317 140.406 64.0833 140.406 65.04C140.406 65.9967 140.61 66.8483 141.019 67.595C141.439 68.3417 142.01 68.9308 142.734 69.3625C143.457 69.7825 144.285 69.9925 145.219 69.9925ZM166.522 74.56C165.005 74.56 163.646 74.3208 162.444 73.8425C161.254 73.3642 160.263 72.6642 159.469 71.7425L161.727 68.1375C162.473 68.9308 163.255 69.5375 164.072 69.9575C164.888 70.3775 165.705 70.5875 166.522 70.5875C166.977 70.5875 167.368 70.5117 167.694 70.36C168.033 70.2083 168.295 69.9925 168.482 69.7125C168.68 69.4208 168.779 69.0708 168.779 68.6625C168.779 68.1958 168.645 67.8283 168.377 67.56C168.12 67.2917 167.723 67.0467 167.187 66.825C166.65 66.5917 165.956 66.3 165.104 65.95C164.381 65.6467 163.687 65.3025 163.022 64.9175C162.357 64.5325 161.814 64.0425 161.394 63.4475C160.986 62.8525 160.782 62.1 160.782 61.19C160.782 60.0817 161.091 59.1075 161.709 58.2675C162.328 57.4158 163.179 56.7508 164.264 56.2725C165.361 55.7942 166.621 55.555 168.044 55.555C168.931 55.555 169.858 55.6892 170.827 55.9575C171.807 56.2258 172.851 56.6342 173.959 57.1825L172.122 60.63C170.617 59.6617 169.269 59.1775 168.079 59.1775C167.414 59.1775 166.883 59.3233 166.487 59.615C166.09 59.9067 165.892 60.2742 165.892 60.7175C165.892 61.1375 166.096 61.505 166.504 61.82C166.924 62.1233 167.432 62.3975 168.027 62.6425C168.633 62.8758 169.211 63.0917 169.759 63.29C170.658 63.6167 171.451 63.9783 172.139 64.375C172.839 64.7717 173.388 65.2908 173.784 65.9325C174.181 66.5625 174.379 67.4083 174.379 68.47C174.379 69.765 174.064 70.8675 173.434 71.7775C172.816 72.6758 171.918 73.3642 170.739 73.8425C169.573 74.3208 168.167 74.56 166.522 74.56ZM184.432 74.56C182.915 74.56 181.556 74.3208 180.354 73.8425C179.164 73.3642 178.173 72.6642 177.379 71.7425L179.637 68.1375C180.384 68.9308 181.165 69.5375 181.982 69.9575C182.799 70.3775 183.615 70.5875 184.432 70.5875C184.887 70.5875 185.278 70.5117 185.604 70.36C185.943 70.2083 186.205 69.9925 186.392 69.7125C186.59 69.4208 186.689 69.0708 186.689 68.6625C186.689 68.1958 186.555 67.8283 186.287 67.56C186.03 67.2917 185.634 67.0467 185.097 66.825C184.56 66.5917 183.866 66.3 183.014 65.95C182.291 65.6467 181.597 65.3025 180.932 64.9175C180.267 64.5325 179.724 64.0425 179.304 63.4475C178.896 62.8525 178.692 62.1 178.692 61.19C178.692 60.0817 179.001 59.1075 179.619 58.2675C180.238 57.4158 181.089 56.7508 182.174 56.2725C183.271 55.7942 184.531 55.555 185.954 55.555C186.841 55.555 187.769 55.6892 188.737 55.9575C189.717 56.2258 190.761 56.6342 191.869 57.1825L190.032 60.63C188.527 59.6617 187.179 59.1775 185.989 59.1775C185.324 59.1775 184.794 59.3233 184.397 59.615C184 59.9067 183.802 60.2742 183.802 60.7175C183.802 61.1375 184.006 61.505 184.414 61.82C184.834 62.1233 185.342 62.3975 185.937 62.6425C186.544 62.8758 187.121 63.0917 187.669 63.29C188.568 63.6167 189.361 63.9783 190.049 64.375C190.749 64.7717 191.298 65.2908 191.694 65.9325C192.091 66.5625 192.289 67.4083 192.289 68.47C192.289 69.765 191.974 70.8675 191.344 71.7775C190.726 72.6758 189.828 73.3642 188.649 73.8425C187.483 74.3208 186.077 74.56 184.432 74.56ZM205.877 74.56C203.94 74.56 202.202 74.1458 200.662 73.3175C199.134 72.4775 197.92 71.34 197.022 69.905C196.124 68.47 195.675 66.8483 195.675 65.04C195.675 63.71 195.925 62.4675 196.427 61.3125C196.94 60.1575 197.652 59.1483 198.562 58.285C199.472 57.41 200.528 56.7333 201.73 56.255C202.931 55.765 204.232 55.52 205.632 55.52C207.499 55.52 209.132 55.9108 210.532 56.6925C211.944 57.4625 213.04 58.5358 213.822 59.9125C214.615 61.2892 215.012 62.8933 215.012 64.725C215.012 64.8767 215.006 65.0108 214.995 65.1275C214.995 65.2325 214.977 65.4367 214.942 65.74H201.205C201.205 66.65 201.409 67.4433 201.817 68.12C202.237 68.7967 202.82 69.3275 203.567 69.7125C204.314 70.0858 205.183 70.2725 206.175 70.2725C207.108 70.2725 207.93 70.0917 208.642 69.73C209.365 69.3683 210.06 68.7908 210.725 67.9975L214.592 69.94C213.752 71.3867 212.562 72.5183 211.022 73.335C209.482 74.1517 207.767 74.56 205.877 74.56ZM201.397 62.765H209.727C209.61 62.0767 209.36 61.4817 208.975 60.98C208.601 60.4783 208.123 60.0933 207.54 59.825C206.956 59.5567 206.297 59.4225 205.562 59.4225C204.78 59.4225 204.092 59.5567 203.497 59.825C202.902 60.0933 202.424 60.4783 202.062 60.98C201.7 61.4817 201.479 62.0767 201.397 62.765ZM224.798 74.56C223.281 74.56 221.922 74.3208 220.721 73.8425C219.531 73.3642 218.539 72.6642 217.746 71.7425L220.003 68.1375C220.75 68.9308 221.531 69.5375 222.348 69.9575C223.165 70.3775 223.981 70.5875 224.798 70.5875C225.253 70.5875 225.644 70.5117 225.971 70.36C226.309 70.2083 226.571 69.9925 226.758 69.7125C226.956 69.4208 227.056 69.0708 227.056 68.6625C227.056 68.1958 226.921 67.8283 226.653 67.56C226.396 67.2917 226 67.0467 225.463 66.825C224.926 66.5917 224.232 66.3 223.381 65.95C222.657 65.6467 221.963 65.3025 221.298 64.9175C220.633 64.5325 220.091 64.0425 219.671 63.4475C219.262 62.8525 219.058 62.1 219.058 61.19C219.058 60.0817 219.367 59.1075 219.986 58.2675C220.604 57.4158 221.456 56.7508 222.541 56.2725C223.637 55.7942 224.897 55.555 226.321 55.555C227.207 55.555 228.135 55.6892 229.103 55.9575C230.083 56.2258 231.127 56.6342 232.236 57.1825L230.398 60.63C228.893 59.6617 227.546 59.1775 226.356 59.1775C225.691 59.1775 225.16 59.3233 224.763 59.615C224.366 59.9067 224.168 60.2742 224.168 60.7175C224.168 61.1375 224.372 61.505 224.781 61.82C225.201 62.1233 225.708 62.3975 226.303 62.6425C226.91 62.8758 227.487 63.0917 228.036 63.29C228.934 63.6167 229.727 63.9783 230.416 64.375C231.116 64.7717 231.664 65.2908 232.061 65.9325C232.457 66.5625 232.656 67.4083 232.656 68.47C232.656 69.765 232.341 70.8675 231.711 71.7775C231.092 72.6758 230.194 73.3642 229.016 73.8425C227.849 74.3208 226.443 74.56 224.798 74.56Z" fill="white"/>
<path d="M12.8422 125C13.0689 125 13.2622 125.08 13.4222 125.24C13.5822 125.387 13.6622 125.58 13.6622 125.82V138.18C13.6622 138.407 13.5755 138.6 13.4022 138.76C13.2422 138.92 13.0489 139 12.8222 139C12.5689 139 12.3689 138.92 12.2222 138.76C12.0755 138.6 12.0022 138.407 12.0022 138.18V125.82C12.0022 125.58 12.0822 125.387 12.2422 125.24C12.4022 125.08 12.6022 125 12.8422 125ZM22.0622 125C22.3022 125 22.4955 125.08 22.6422 125.24C22.8022 125.387 22.8822 125.58 22.8822 125.82V138.18C22.8822 138.407 22.8022 138.6 22.6422 138.76C22.4822 138.92 22.2822 139 22.0422 139C21.8155 139 21.6222 138.92 21.4622 138.76C21.3022 138.6 21.2222 138.407 21.2222 138.18V125.82C21.2222 125.58 21.3022 125.387 21.4622 125.24C21.6355 125.08 21.8355 125 22.0622 125ZM12.7622 131.1H22.0822L22.0622 132.66H12.7022L12.7622 131.1ZM34.6367 128.56C34.8634 128.56 35.0501 128.64 35.1967 128.8C35.3567 128.947 35.4367 129.133 35.4367 129.36V138.18C35.4367 138.407 35.3567 138.6 35.1967 138.76C35.0501 138.92 34.8634 139 34.6367 139C34.3967 139 34.2034 138.92 34.0567 138.76C33.9101 138.6 33.8367 138.407 33.8367 138.18V136.28L34.2167 136.24C34.2167 136.533 34.1167 136.853 33.9167 137.2C33.7167 137.547 33.4434 137.873 33.0967 138.18C32.7501 138.473 32.3367 138.72 31.8567 138.92C31.3901 139.107 30.8834 139.2 30.3367 139.2C29.4301 139.2 28.6167 138.967 27.8967 138.5C27.1767 138.02 26.6034 137.373 26.1767 136.56C25.7634 135.747 25.5567 134.82 25.5567 133.78C25.5567 132.727 25.7634 131.8 26.1767 131C26.6034 130.187 27.1767 129.553 27.8967 129.1C28.6167 128.633 29.4167 128.4 30.2967 128.4C30.8701 128.4 31.4034 128.493 31.8967 128.68C32.3901 128.867 32.8167 129.12 33.1767 129.44C33.5501 129.76 33.8367 130.113 34.0367 130.5C34.2501 130.887 34.3567 131.273 34.3567 131.66L33.8367 131.54V129.36C33.8367 129.133 33.9101 128.947 34.0567 128.8C34.2034 128.64 34.3967 128.56 34.6367 128.56ZM30.5167 137.72C31.1834 137.72 31.7701 137.547 32.2767 137.2C32.7967 136.853 33.1967 136.387 33.4767 135.8C33.7701 135.2 33.9167 134.527 33.9167 133.78C33.9167 133.047 33.7701 132.387 33.4767 131.8C33.1967 131.2 32.7967 130.733 32.2767 130.4C31.7701 130.053 31.1834 129.88 30.5167 129.88C29.8634 129.88 29.2767 130.047 28.7567 130.38C28.2501 130.713 27.8501 131.173 27.5567 131.76C27.2634 132.347 27.1167 133.02 27.1167 133.78C27.1167 134.527 27.2567 135.2 27.5367 135.8C27.8301 136.387 28.2301 136.853 28.7367 137.2C29.2567 137.547 29.8501 137.72 30.5167 137.72ZM43.0019 128.4C43.6819 128.4 44.2952 128.473 44.8419 128.62C45.3885 128.767 45.8219 128.967 46.1419 129.22C46.4619 129.473 46.6219 129.76 46.6219 130.08C46.6219 130.253 46.5619 130.42 46.4419 130.58C46.3219 130.74 46.1619 130.82 45.9619 130.82C45.7752 130.82 45.6219 130.787 45.5019 130.72C45.3952 130.653 45.2885 130.567 45.1819 130.46C45.0885 130.353 44.9552 130.26 44.7819 130.18C44.6219 130.087 44.3885 130.013 44.0819 129.96C43.7752 129.907 43.4685 129.88 43.1619 129.88C42.4285 129.88 41.7819 130.053 41.2219 130.4C40.6752 130.747 40.2419 131.213 39.9219 131.8C39.6019 132.387 39.4419 133.053 39.4419 133.8C39.4419 134.547 39.5952 135.213 39.9019 135.8C40.2085 136.387 40.6352 136.853 41.1819 137.2C41.7285 137.547 42.3619 137.72 43.0819 137.72C43.5485 137.72 43.9219 137.68 44.2019 137.6C44.4819 137.52 44.7152 137.427 44.9019 137.32C45.1419 137.187 45.3219 137.053 45.4419 136.92C45.5752 136.787 45.7485 136.72 45.9619 136.72C46.1885 136.72 46.3619 136.793 46.4819 136.94C46.6152 137.087 46.6819 137.267 46.6819 137.48C46.6819 137.72 46.5152 137.973 46.1819 138.24C45.8485 138.507 45.3952 138.733 44.8219 138.92C44.2619 139.107 43.6219 139.2 42.9019 139.2C41.8885 139.2 41.0019 138.967 40.2419 138.5C39.4819 138.02 38.8885 137.373 38.4619 136.56C38.0485 135.733 37.8419 134.813 37.8419 133.8C37.8419 132.787 38.0552 131.873 38.4819 131.06C38.9219 130.247 39.5285 129.6 40.3019 129.12C41.0752 128.64 41.9752 128.4 43.0019 128.4ZM49.733 139C49.493 139 49.2996 138.92 49.153 138.76C49.0063 138.6 48.933 138.407 48.933 138.18V125C48.933 124.773 49.0063 124.587 49.153 124.44C49.2996 124.28 49.493 124.2 49.733 124.2C49.9596 124.2 50.1463 124.28 50.293 124.44C50.453 124.587 50.533 124.773 50.533 125V138.18C50.533 138.407 50.453 138.6 50.293 138.76C50.1463 138.92 49.9596 139 49.733 139ZM56.373 128.6C56.5863 128.6 56.7663 128.687 56.913 128.86C57.073 129.02 57.153 129.187 57.153 129.36C57.153 129.587 57.0463 129.787 56.833 129.96L50.353 135.62L50.293 133.76L55.813 128.84C55.973 128.68 56.1596 128.6 56.373 128.6ZM56.593 138.98C56.3663 138.98 56.1663 138.893 55.993 138.72L51.733 134.18L52.933 133.08L57.153 137.6C57.313 137.773 57.393 137.973 57.393 138.2C57.393 138.44 57.2996 138.633 57.113 138.78C56.9263 138.913 56.753 138.98 56.593 138.98ZM59.0328 137.36C58.9128 137.187 58.8595 137.007 58.8728 136.82C58.8861 136.62 58.9995 136.447 59.2128 136.3C59.3461 136.207 59.4995 136.167 59.6728 136.18C59.8595 136.193 60.0261 136.28 60.1728 136.44C60.5461 136.88 60.9728 137.233 61.4528 137.5C61.9328 137.753 62.5195 137.88 63.2128 137.88C63.5328 137.867 63.8528 137.813 64.1728 137.72C64.4928 137.627 64.7595 137.467 64.9728 137.24C65.1995 137 65.3128 136.687 65.3128 136.3C65.3128 135.927 65.1995 135.633 64.9728 135.42C64.7461 135.193 64.4528 135.013 64.0928 134.88C63.7328 134.733 63.3395 134.607 62.9128 134.5C62.4728 134.38 62.0395 134.247 61.6128 134.1C61.1861 133.94 60.7995 133.747 60.4528 133.52C60.1195 133.28 59.8461 132.987 59.6328 132.64C59.4328 132.28 59.3328 131.847 59.3328 131.34C59.3328 130.74 59.4928 130.22 59.8128 129.78C60.1461 129.34 60.5861 129 61.1328 128.76C61.6928 128.52 62.2995 128.4 62.9528 128.4C63.3261 128.4 63.7128 128.447 64.1128 128.54C64.5261 128.62 64.9261 128.767 65.3128 128.98C65.6995 129.18 66.0395 129.46 66.3328 129.82C66.4528 129.953 66.5195 130.12 66.5328 130.32C66.5461 130.52 66.4595 130.7 66.2728 130.86C66.1261 130.967 65.9595 131.013 65.7728 131C65.5995 130.987 65.4528 130.92 65.3328 130.8C65.0528 130.467 64.6995 130.213 64.2728 130.04C63.8595 129.853 63.3995 129.76 62.8928 129.76C62.5728 129.76 62.2595 129.807 61.9528 129.9C61.6461 129.993 61.3861 130.153 61.1728 130.38C60.9728 130.593 60.8728 130.893 60.8728 131.28C60.8861 131.64 61.0061 131.933 61.2328 132.16C61.4595 132.387 61.7661 132.573 62.1528 132.72C62.5395 132.853 62.9661 132.987 63.4328 133.12C63.8595 133.227 64.2661 133.353 64.6528 133.5C65.0528 133.633 65.4128 133.813 65.7328 134.04C66.0528 134.267 66.3061 134.56 66.4928 134.92C66.6795 135.267 66.7728 135.707 66.7728 136.24C66.7728 136.853 66.5995 137.387 66.2528 137.84C65.9061 138.28 65.4461 138.62 64.8728 138.86C64.3128 139.087 63.7061 139.2 63.0528 139.2C62.3195 139.2 61.5928 139.06 60.8728 138.78C60.1661 138.5 59.5528 138.027 59.0328 137.36ZM83.1133 128.56C83.3399 128.56 83.5266 128.64 83.6733 128.8C83.8333 128.947 83.9133 129.133 83.9133 129.36V138.18C83.9133 138.407 83.8333 138.6 83.6733 138.76C83.5266 138.92 83.3399 139 83.1133 139C82.8733 139 82.6799 138.92 82.5333 138.76C82.3866 138.6 82.3133 138.407 82.3133 138.18V136.28L82.6933 136.24C82.6933 136.533 82.5933 136.853 82.3933 137.2C82.1933 137.547 81.9199 137.873 81.5733 138.18C81.2266 138.473 80.8133 138.72 80.3333 138.92C79.8666 139.107 79.3599 139.2 78.8133 139.2C77.9066 139.2 77.0933 138.967 76.3733 138.5C75.6533 138.02 75.0799 137.373 74.6533 136.56C74.2399 135.747 74.0333 134.82 74.0333 133.78C74.0333 132.727 74.2399 131.8 74.6533 131C75.0799 130.187 75.6533 129.553 76.3733 129.1C77.0933 128.633 77.8933 128.4 78.7733 128.4C79.3466 128.4 79.8799 128.493 80.3733 128.68C80.8666 128.867 81.2933 129.12 81.6533 129.44C82.0266 129.76 82.3133 130.113 82.5133 130.5C82.7266 130.887 82.8333 131.273 82.8333 131.66L82.3133 131.54V129.36C82.3133 129.133 82.3866 128.947 82.5333 128.8C82.6799 128.64 82.8733 128.56 83.1133 128.56ZM78.9933 137.72C79.6599 137.72 80.2466 137.547 80.7533 137.2C81.2733 136.853 81.6733 136.387 81.9533 135.8C82.2466 135.2 82.3933 134.527 82.3933 133.78C82.3933 133.047 82.2466 132.387 81.9533 131.8C81.6733 131.2 81.2733 130.733 80.7533 130.4C80.2466 130.053 79.6599 129.88 78.9933 129.88C78.3399 129.88 77.7533 130.047 77.2333 130.38C76.7266 130.713 76.3266 131.173 76.0333 131.76C75.7399 132.347 75.5933 133.02 75.5933 133.78C75.5933 134.527 75.7333 135.2 76.0133 135.8C76.3066 136.387 76.7066 136.853 77.2133 137.2C77.7333 137.547 78.3266 137.72 78.9933 137.72ZM92.0184 128.4C92.9251 128.4 93.6384 128.587 94.1584 128.96C94.6784 129.333 95.0451 129.833 95.2584 130.46C95.4851 131.087 95.5984 131.787 95.5984 132.56V138.18C95.5984 138.407 95.5184 138.6 95.3584 138.76C95.2118 138.92 95.0251 139 94.7984 139C94.5718 139 94.3784 138.92 94.2184 138.76C94.0718 138.6 93.9984 138.407 93.9984 138.18V132.6C93.9984 132.093 93.9184 131.64 93.7584 131.24C93.6118 130.827 93.3584 130.5 92.9984 130.26C92.6518 130.007 92.1718 129.88 91.5584 129.88C90.9984 129.88 90.4851 130.007 90.0184 130.26C89.5518 130.5 89.1784 130.827 88.8984 131.24C88.6184 131.64 88.4784 132.093 88.4784 132.6V138.18C88.4784 138.407 88.3984 138.6 88.2384 138.76C88.0918 138.92 87.9051 139 87.6784 139C87.4518 139 87.2584 138.92 87.0984 138.76C86.9518 138.6 86.8784 138.407 86.8784 138.18V129.46C86.8784 129.233 86.9518 129.047 87.0984 128.9C87.2584 128.74 87.4518 128.66 87.6784 128.66C87.9184 128.66 88.1118 128.74 88.2584 128.9C88.4051 129.047 88.4784 129.233 88.4784 129.46V130.88L88.0784 131.32C88.1451 130.973 88.2984 130.627 88.5384 130.28C88.7784 129.92 89.0784 129.6 89.4384 129.32C89.7984 129.04 90.1984 128.82 90.6384 128.66C91.0784 128.487 91.5384 128.4 92.0184 128.4ZM107.078 124.2C107.305 124.2 107.491 124.28 107.638 124.44C107.798 124.587 107.878 124.773 107.878 125V138.18C107.878 138.407 107.798 138.6 107.638 138.76C107.491 138.92 107.305 139 107.078 139C106.838 139 106.645 138.92 106.498 138.76C106.351 138.6 106.278 138.407 106.278 138.18V136.28L106.658 136.14C106.658 136.46 106.558 136.8 106.358 137.16C106.158 137.507 105.885 137.833 105.538 138.14C105.191 138.447 104.778 138.7 104.298 138.9C103.831 139.1 103.325 139.2 102.778 139.2C101.885 139.2 101.071 138.967 100.338 138.5C99.6181 138.033 99.0448 137.393 98.6181 136.58C98.2048 135.767 97.9981 134.84 97.9981 133.8C97.9981 132.747 98.2048 131.813 98.6181 131C99.0448 130.187 99.6181 129.553 100.338 129.1C101.058 128.633 101.858 128.4 102.738 128.4C103.298 128.4 103.825 128.493 104.318 128.68C104.811 128.867 105.238 129.12 105.598 129.44C105.971 129.76 106.265 130.113 106.478 130.5C106.691 130.887 106.798 131.273 106.798 131.66L106.278 131.54V125C106.278 124.773 106.351 124.587 106.498 124.44C106.645 124.28 106.838 124.2 107.078 124.2ZM102.958 137.72C103.625 137.72 104.211 137.553 104.718 137.22C105.238 136.873 105.638 136.407 105.918 135.82C106.211 135.22 106.358 134.547 106.358 133.8C106.358 133.04 106.211 132.367 105.918 131.78C105.638 131.193 105.238 130.733 104.718 130.4C104.211 130.053 103.625 129.88 102.958 129.88C102.305 129.88 101.718 130.053 101.198 130.4C100.691 130.733 100.291 131.193 99.9981 131.78C99.7048 132.367 99.5581 133.04 99.5581 133.8C99.5581 134.533 99.7048 135.2 99.9981 135.8C100.291 136.387 100.691 136.853 101.198 137.2C101.718 137.547 102.305 137.72 102.958 137.72ZM117.151 139C116.924 139 116.731 138.92 116.571 138.76C116.424 138.6 116.351 138.407 116.351 138.18V129.46C116.351 129.233 116.424 129.047 116.571 128.9C116.731 128.74 116.924 128.66 117.151 128.66C117.391 128.66 117.584 128.74 117.731 128.9C117.878 129.047 117.951 129.233 117.951 129.46V132.1L117.711 131.68C117.791 131.267 117.931 130.867 118.131 130.48C118.344 130.08 118.611 129.727 118.931 129.42C119.251 129.1 119.618 128.853 120.031 128.68C120.444 128.493 120.898 128.4 121.391 128.4C121.684 128.4 121.951 128.473 122.191 128.62C122.444 128.753 122.571 128.947 122.571 129.2C122.571 129.48 122.498 129.687 122.351 129.82C122.204 129.953 122.038 130.02 121.851 130.02C121.678 130.02 121.511 129.987 121.351 129.92C121.191 129.84 120.991 129.8 120.751 129.8C120.418 129.8 120.084 129.893 119.751 130.08C119.431 130.253 119.131 130.507 118.851 130.84C118.584 131.173 118.364 131.553 118.191 131.98C118.031 132.393 117.951 132.84 117.951 133.32V138.18C117.951 138.407 117.871 138.6 117.711 138.76C117.564 138.92 117.378 139 117.151 139ZM128.709 139.2C127.643 139.2 126.709 138.973 125.909 138.52C125.109 138.067 124.483 137.447 124.029 136.66C123.589 135.86 123.369 134.94 123.369 133.9C123.369 132.74 123.596 131.753 124.049 130.94C124.516 130.113 125.116 129.487 125.849 129.06C126.596 128.62 127.383 128.4 128.209 128.4C128.823 128.4 129.416 128.513 129.989 128.74C130.563 128.967 131.069 129.3 131.509 129.74C131.949 130.167 132.303 130.687 132.569 131.3C132.836 131.9 132.976 132.573 132.989 133.32C132.989 133.533 132.909 133.713 132.749 133.86C132.589 134.007 132.403 134.08 132.189 134.08H124.289L123.929 132.7H131.629L131.309 132.98V132.54C131.256 131.993 131.069 131.527 130.749 131.14C130.443 130.74 130.063 130.433 129.609 130.22C129.169 130.007 128.703 129.9 128.209 129.9C127.809 129.9 127.409 129.973 127.009 130.12C126.623 130.253 126.269 130.48 125.949 130.8C125.643 131.107 125.389 131.507 125.189 132C125.003 132.493 124.909 133.087 124.909 133.78C124.909 134.553 125.063 135.233 125.369 135.82C125.689 136.407 126.129 136.873 126.689 137.22C127.249 137.553 127.903 137.72 128.649 137.72C129.116 137.72 129.523 137.66 129.869 137.54C130.216 137.42 130.516 137.273 130.769 137.1C131.023 136.913 131.236 136.727 131.409 136.54C131.583 136.42 131.749 136.36 131.909 136.36C132.109 136.36 132.269 136.427 132.389 136.56C132.523 136.693 132.589 136.853 132.589 137.04C132.589 137.267 132.483 137.467 132.269 137.64C131.896 138.053 131.389 138.42 130.749 138.74C130.109 139.047 129.429 139.2 128.709 139.2ZM134.814 137.36C134.694 137.187 134.641 137.007 134.654 136.82C134.667 136.62 134.781 136.447 134.994 136.3C135.127 136.207 135.281 136.167 135.454 136.18C135.641 136.193 135.807 136.28 135.954 136.44C136.327 136.88 136.754 137.233 137.234 137.5C137.714 137.753 138.301 137.88 138.994 137.88C139.314 137.867 139.634 137.813 139.954 137.72C140.274 137.627 140.541 137.467 140.754 137.24C140.981 137 141.094 136.687 141.094 136.3C141.094 135.927 140.981 135.633 140.754 135.42C140.527 135.193 140.234 135.013 139.874 134.88C139.514 134.733 139.121 134.607 138.694 134.5C138.254 134.38 137.821 134.247 137.394 134.1C136.967 133.94 136.581 133.747 136.234 133.52C135.901 133.28 135.627 132.987 135.414 132.64C135.214 132.28 135.114 131.847 135.114 131.34C135.114 130.74 135.274 130.22 135.594 129.78C135.927 129.34 136.367 129 136.914 128.76C137.474 128.52 138.081 128.4 138.734 128.4C139.107 128.4 139.494 128.447 139.894 128.54C140.307 128.62 140.707 128.767 141.094 128.98C141.481 129.18 141.821 129.46 142.114 129.82C142.234 129.953 142.301 130.12 142.314 130.32C142.327 130.52 142.241 130.7 142.054 130.86C141.907 130.967 141.741 131.013 141.554 131C141.381 130.987 141.234 130.92 141.114 130.8C140.834 130.467 140.481 130.213 140.054 130.04C139.641 129.853 139.181 129.76 138.674 129.76C138.354 129.76 138.041 129.807 137.734 129.9C137.427 129.993 137.167 130.153 136.954 130.38C136.754 130.593 136.654 130.893 136.654 131.28C136.667 131.64 136.787 131.933 137.014 132.16C137.241 132.387 137.547 132.573 137.934 132.72C138.321 132.853 138.747 132.987 139.214 133.12C139.641 133.227 140.047 133.353 140.434 133.5C140.834 133.633 141.194 133.813 141.514 134.04C141.834 134.267 142.087 134.56 142.274 134.92C142.461 135.267 142.554 135.707 142.554 136.24C142.554 136.853 142.381 137.387 142.034 137.84C141.687 138.28 141.227 138.62 140.654 138.86C140.094 139.087 139.487 139.2 138.834 139.2C138.101 139.2 137.374 139.06 136.654 138.78C135.947 138.5 135.334 138.027 134.814 137.36ZM154.687 133.8C154.687 134.84 154.453 135.767 153.987 136.58C153.533 137.393 152.913 138.033 152.127 138.5C151.353 138.967 150.48 139.2 149.507 139.2C148.533 139.2 147.653 138.967 146.867 138.5C146.08 138.033 145.453 137.393 144.987 136.58C144.533 135.767 144.307 134.84 144.307 133.8C144.307 132.76 144.533 131.833 144.987 131.02C145.453 130.207 146.08 129.567 146.867 129.1C147.653 128.633 148.533 128.4 149.507 128.4C150.48 128.4 151.353 128.633 152.127 129.1C152.913 129.567 153.533 130.207 153.987 131.02C154.453 131.833 154.687 132.76 154.687 133.8ZM153.087 133.8C153.087 133.027 152.927 132.347 152.607 131.76C152.3 131.173 151.873 130.713 151.327 130.38C150.793 130.047 150.187 129.88 149.507 129.88C148.827 129.88 148.213 130.047 147.667 130.38C147.133 130.713 146.707 131.173 146.387 131.76C146.067 132.347 145.907 133.027 145.907 133.8C145.907 134.56 146.067 135.233 146.387 135.82C146.707 136.407 147.133 136.873 147.667 137.22C148.213 137.553 148.827 137.72 149.507 137.72C150.187 137.72 150.793 137.553 151.327 137.22C151.873 136.873 152.3 136.407 152.607 135.82C152.927 135.233 153.087 134.56 153.087 133.8ZM164.833 128.66C165.073 128.66 165.267 128.74 165.413 128.9C165.56 129.047 165.633 129.233 165.633 129.46V134.92C165.633 136.267 165.253 137.313 164.493 138.06C163.747 138.793 162.7 139.16 161.353 139.16C160.02 139.16 158.973 138.793 158.213 138.06C157.467 137.313 157.093 136.267 157.093 134.92V129.46C157.093 129.233 157.167 129.047 157.313 128.9C157.473 128.74 157.667 128.66 157.893 128.66C158.133 128.66 158.327 128.74 158.473 128.9C158.62 129.047 158.693 129.233 158.693 129.46V134.92C158.693 135.827 158.927 136.513 159.393 136.98C159.86 137.447 160.513 137.68 161.353 137.68C162.22 137.68 162.88 137.447 163.333 136.98C163.8 136.513 164.033 135.827 164.033 134.92V129.46C164.033 129.233 164.107 129.047 164.253 128.9C164.413 128.74 164.607 128.66 164.833 128.66ZM169.397 139C169.171 139 168.977 138.92 168.817 138.76C168.671 138.6 168.597 138.407 168.597 138.18V129.46C168.597 129.233 168.671 129.047 168.817 128.9C168.977 128.74 169.171 128.66 169.397 128.66C169.637 128.66 169.831 128.74 169.977 128.9C170.124 129.047 170.197 129.233 170.197 129.46V132.1L169.957 131.68C170.037 131.267 170.177 130.867 170.377 130.48C170.591 130.08 170.857 129.727 171.177 129.42C171.497 129.1 171.864 128.853 172.277 128.68C172.691 128.493 173.144 128.4 173.637 128.4C173.931 128.4 174.197 128.473 174.437 128.62C174.691 128.753 174.817 128.947 174.817 129.2C174.817 129.48 174.744 129.687 174.597 129.82C174.451 129.953 174.284 130.02 174.097 130.02C173.924 130.02 173.757 129.987 173.597 129.92C173.437 129.84 173.237 129.8 172.997 129.8C172.664 129.8 172.331 129.893 171.997 130.08C171.677 130.253 171.377 130.507 171.097 130.84C170.831 131.173 170.611 131.553 170.437 131.98C170.277 132.393 170.197 132.84 170.197 133.32V138.18C170.197 138.407 170.117 138.6 169.957 138.76C169.811 138.92 169.624 139 169.397 139ZM180.775 128.4C181.455 128.4 182.069 128.473 182.615 128.62C183.162 128.767 183.595 128.967 183.915 129.22C184.235 129.473 184.395 129.76 184.395 130.08C184.395 130.253 184.335 130.42 184.215 130.58C184.095 130.74 183.935 130.82 183.735 130.82C183.549 130.82 183.395 130.787 183.275 130.72C183.169 130.653 183.062 130.567 182.955 130.46C182.862 130.353 182.729 130.26 182.555 130.18C182.395 130.087 182.162 130.013 181.855 129.96C181.549 129.907 181.242 129.88 180.935 129.88C180.202 129.88 179.555 130.053 178.995 130.4C178.449 130.747 178.015 131.213 177.695 131.8C177.375 132.387 177.215 133.053 177.215 133.8C177.215 134.547 177.369 135.213 177.675 135.8C177.982 136.387 178.409 136.853 178.955 137.2C179.502 137.547 180.135 137.72 180.855 137.72C181.322 137.72 181.695 137.68 181.975 137.6C182.255 137.52 182.489 137.427 182.675 137.32C182.915 137.187 183.095 137.053 183.215 136.92C183.349 136.787 183.522 136.72 183.735 136.72C183.962 136.72 184.135 136.793 184.255 136.94C184.389 137.087 184.455 137.267 184.455 137.48C184.455 137.72 184.289 137.973 183.955 138.24C183.622 138.507 183.169 138.733 182.595 138.92C182.035 139.107 181.395 139.2 180.675 139.2C179.662 139.2 178.775 138.967 178.015 138.5C177.255 138.02 176.662 137.373 176.235 136.56C175.822 135.733 175.615 134.813 175.615 133.8C175.615 132.787 175.829 131.873 176.255 131.06C176.695 130.247 177.302 129.6 178.075 129.12C178.849 128.64 179.749 128.4 180.775 128.4ZM191.326 139.2C190.26 139.2 189.326 138.973 188.526 138.52C187.726 138.067 187.1 137.447 186.646 136.66C186.206 135.86 185.986 134.94 185.986 133.9C185.986 132.74 186.213 131.753 186.666 130.94C187.133 130.113 187.733 129.487 188.466 129.06C189.213 128.62 190 128.4 190.826 128.4C191.44 128.4 192.033 128.513 192.606 128.74C193.18 128.967 193.686 129.3 194.126 129.74C194.566 130.167 194.92 130.687 195.186 131.3C195.453 131.9 195.593 132.573 195.606 133.32C195.606 133.533 195.526 133.713 195.366 133.86C195.206 134.007 195.02 134.08 194.806 134.08H186.906L186.546 132.7H194.246L193.926 132.98V132.54C193.873 131.993 193.686 131.527 193.366 131.14C193.06 130.74 192.68 130.433 192.226 130.22C191.786 130.007 191.32 129.9 190.826 129.9C190.426 129.9 190.026 129.973 189.626 130.12C189.24 130.253 188.886 130.48 188.566 130.8C188.26 131.107 188.006 131.507 187.806 132C187.62 132.493 187.526 133.087 187.526 133.78C187.526 134.553 187.68 135.233 187.986 135.82C188.306 136.407 188.746 136.873 189.306 137.22C189.866 137.553 190.52 137.72 191.266 137.72C191.733 137.72 192.14 137.66 192.486 137.54C192.833 137.42 193.133 137.273 193.386 137.1C193.64 136.913 193.853 136.727 194.026 136.54C194.2 136.42 194.366 136.36 194.526 136.36C194.726 136.36 194.886 136.427 195.006 136.56C195.14 136.693 195.206 136.853 195.206 137.04C195.206 137.267 195.1 137.467 194.886 137.64C194.513 138.053 194.006 138.42 193.366 138.74C192.726 139.047 192.046 139.2 191.326 139.2ZM197.431 137.36C197.311 137.187 197.258 137.007 197.271 136.82C197.285 136.62 197.398 136.447 197.611 136.3C197.745 136.207 197.898 136.167 198.071 136.18C198.258 136.193 198.425 136.28 198.571 136.44C198.945 136.88 199.371 137.233 199.851 137.5C200.331 137.753 200.918 137.88 201.611 137.88C201.931 137.867 202.251 137.813 202.571 137.72C202.891 137.627 203.158 137.467 203.371 137.24C203.598 137 203.711 136.687 203.711 136.3C203.711 135.927 203.598 135.633 203.371 135.42C203.145 135.193 202.851 135.013 202.491 134.88C202.131 134.733 201.738 134.607 201.311 134.5C200.871 134.38 200.438 134.247 200.011 134.1C199.585 133.94 199.198 133.747 198.851 133.52C198.518 133.28 198.245 132.987 198.031 132.64C197.831 132.28 197.731 131.847 197.731 131.34C197.731 130.74 197.891 130.22 198.211 129.78C198.545 129.34 198.985 129 199.531 128.76C200.091 128.52 200.698 128.4 201.351 128.4C201.725 128.4 202.111 128.447 202.511 128.54C202.925 128.62 203.325 128.767 203.711 128.98C204.098 129.18 204.438 129.46 204.731 129.82C204.851 129.953 204.918 130.12 204.931 130.32C204.945 130.52 204.858 130.7 204.671 130.86C204.525 130.967 204.358 131.013 204.171 131C203.998 130.987 203.851 130.92 203.731 130.8C203.451 130.467 203.098 130.213 202.671 130.04C202.258 129.853 201.798 129.76 201.291 129.76C200.971 129.76 200.658 129.807 200.351 129.9C200.045 129.993 199.785 130.153 199.571 130.38C199.371 130.593 199.271 130.893 199.271 131.28C199.285 131.64 199.405 131.933 199.631 132.16C199.858 132.387 200.165 132.573 200.551 132.72C200.938 132.853 201.365 132.987 201.831 133.12C202.258 133.227 202.665 133.353 203.051 133.5C203.451 133.633 203.811 133.813 204.131 134.04C204.451 134.267 204.705 134.56 204.891 134.92C205.078 135.267 205.171 135.707 205.171 136.24C205.171 136.853 204.998 137.387 204.651 137.84C204.305 138.28 203.845 138.62 203.271 138.86C202.711 139.087 202.105 139.2 201.451 139.2C200.718 139.2 199.991 139.06 199.271 138.78C198.565 138.5 197.951 138.027 197.431 137.36ZM212.592 128.72H217.292C217.505 128.72 217.678 128.793 217.812 128.94C217.958 129.087 218.032 129.26 218.032 129.46C218.032 129.673 217.958 129.853 217.812 130C217.678 130.133 217.505 130.2 217.292 130.2H212.592C212.392 130.2 212.218 130.127 212.072 129.98C211.925 129.833 211.852 129.653 211.852 129.44C211.852 129.24 211.925 129.073 212.072 128.94C212.218 128.793 212.392 128.72 212.592 128.72ZM214.692 126C214.918 126 215.105 126.08 215.252 126.24C215.398 126.387 215.472 126.573 215.472 126.8V136.46C215.472 136.78 215.518 137.02 215.612 137.18C215.705 137.34 215.825 137.453 215.972 137.52C216.132 137.573 216.285 137.6 216.432 137.6C216.565 137.6 216.678 137.58 216.772 137.54C216.878 137.487 216.998 137.46 217.132 137.46C217.265 137.46 217.385 137.527 217.492 137.66C217.612 137.78 217.672 137.94 217.672 138.14C217.672 138.38 217.532 138.587 217.252 138.76C216.972 138.92 216.658 139 216.312 139C216.125 139 215.892 138.987 215.612 138.96C215.345 138.933 215.078 138.847 214.812 138.7C214.545 138.553 214.318 138.313 214.132 137.98C213.958 137.633 213.872 137.153 213.872 136.54V126.8C213.872 126.573 213.952 126.387 214.112 126.24C214.272 126.08 214.465 126 214.692 126ZM229.98 133.8C229.98 134.84 229.746 135.767 229.28 136.58C228.826 137.393 228.206 138.033 227.42 138.5C226.646 138.967 225.773 139.2 224.8 139.2C223.826 139.2 222.946 138.967 222.16 138.5C221.373 138.033 220.746 137.393 220.28 136.58C219.826 135.767 219.6 134.84 219.6 133.8C219.6 132.76 219.826 131.833 220.28 131.02C220.746 130.207 221.373 129.567 222.16 129.1C222.946 128.633 223.826 128.4 224.8 128.4C225.773 128.4 226.646 128.633 227.42 129.1C228.206 129.567 228.826 130.207 229.28 131.02C229.746 131.833 229.98 132.76 229.98 133.8ZM228.38 133.8C228.38 133.027 228.22 132.347 227.9 131.76C227.593 131.173 227.166 130.713 226.62 130.38C226.086 130.047 225.48 129.88 224.8 129.88C224.12 129.88 223.506 130.047 222.96 130.38C222.426 130.713 222 131.173 221.68 131.76C221.36 132.347 221.2 133.027 221.2 133.8C221.2 134.56 221.36 135.233 221.68 135.82C222 136.407 222.426 136.873 222.96 137.22C223.506 137.553 224.12 137.72 224.8 137.72C225.48 137.72 226.086 137.553 226.62 137.22C227.166 136.873 227.593 136.407 227.9 135.82C228.22 135.233 228.38 134.56 228.38 133.8ZM243.034 128.4C243.941 128.4 244.654 128.587 245.174 128.96C245.694 129.333 246.061 129.833 246.274 130.46C246.501 131.087 246.614 131.787 246.614 132.56V138.18C246.614 138.407 246.534 138.6 246.374 138.76C246.227 138.92 246.041 139 245.814 139C245.587 139 245.394 138.92 245.234 138.76C245.087 138.6 245.014 138.407 245.014 138.18V132.6C245.014 132.093 244.934 131.64 244.774 131.24C244.627 130.827 244.374 130.5 244.014 130.26C243.667 130.007 243.187 129.88 242.574 129.88C242.014 129.88 241.501 130.007 241.034 130.26C240.567 130.5 240.194 130.827 239.914 131.24C239.634 131.64 239.494 132.093 239.494 132.6V138.18C239.494 138.407 239.414 138.6 239.254 138.76C239.107 138.92 238.921 139 238.694 139C238.467 139 238.274 138.92 238.114 138.76C237.967 138.6 237.894 138.407 237.894 138.18V129.46C237.894 129.233 237.967 129.047 238.114 128.9C238.274 128.74 238.467 128.66 238.694 128.66C238.934 128.66 239.127 128.74 239.274 128.9C239.421 129.047 239.494 129.233 239.494 129.46V130.88L239.094 131.32C239.161 130.973 239.314 130.627 239.554 130.28C239.794 129.92 240.094 129.6 240.454 129.32C240.814 129.04 241.214 128.82 241.654 128.66C242.094 128.487 242.554 128.4 243.034 128.4ZM258.094 128.56C258.32 128.56 258.507 128.64 258.654 128.8C258.814 128.947 258.894 129.133 258.894 129.36V138.18C258.894 138.407 258.814 138.6 258.654 138.76C258.507 138.92 258.32 139 258.094 139C257.854 139 257.66 138.92 257.514 138.76C257.367 138.6 257.294 138.407 257.294 138.18V136.28L257.674 136.24C257.674 136.533 257.574 136.853 257.374 137.2C257.174 137.547 256.9 137.873 256.554 138.18C256.207 138.473 255.794 138.72 255.314 138.92C254.847 139.107 254.34 139.2 253.794 139.2C252.887 139.2 252.074 138.967 251.354 138.5C250.634 138.02 250.06 137.373 249.634 136.56C249.22 135.747 249.014 134.82 249.014 133.78C249.014 132.727 249.22 131.8 249.634 131C250.06 130.187 250.634 129.553 251.354 129.1C252.074 128.633 252.874 128.4 253.754 128.4C254.327 128.4 254.86 128.493 255.354 128.68C255.847 128.867 256.274 129.12 256.634 129.44C257.007 129.76 257.294 130.113 257.494 130.5C257.707 130.887 257.814 131.273 257.814 131.66L257.294 131.54V129.36C257.294 129.133 257.367 128.947 257.514 128.8C257.66 128.64 257.854 128.56 258.094 128.56ZM253.974 137.72C254.64 137.72 255.227 137.547 255.734 137.2C256.254 136.853 256.654 136.387 256.934 135.8C257.227 135.2 257.374 134.527 257.374 133.78C257.374 133.047 257.227 132.387 256.934 131.8C256.654 131.2 256.254 130.733 255.734 130.4C255.227 130.053 254.64 129.88 253.974 129.88C253.32 129.88 252.734 130.047 252.214 130.38C251.707 130.713 251.307 131.173 251.014 131.76C250.72 132.347 250.574 133.02 250.574 133.78C250.574 134.527 250.714 135.2 250.994 135.8C251.287 136.387 251.687 136.853 252.194 137.2C252.714 137.547 253.307 137.72 253.974 137.72ZM261.625 128.48C261.785 128.48 261.938 128.527 262.085 128.62C262.231 128.7 262.338 128.82 262.405 128.98L265.725 136.78L265.405 136.94L268.785 129C268.931 128.64 269.178 128.467 269.525 128.48C269.725 128.48 269.898 128.547 270.045 128.68C270.191 128.813 270.265 128.98 270.265 129.18C270.265 129.26 270.251 129.34 270.225 129.42C270.211 129.487 270.191 129.547 270.165 129.6L266.305 138.48C266.158 138.813 265.925 138.987 265.605 139C265.431 139.013 265.265 138.98 265.105 138.9C264.958 138.807 264.851 138.667 264.785 138.48L260.925 129.62C260.898 129.567 260.871 129.507 260.845 129.44C260.831 129.373 260.825 129.293 260.825 129.2C260.825 129.027 260.891 128.867 261.025 128.72C261.171 128.56 261.371 128.48 261.625 128.48ZM273.965 138.18C273.965 138.407 273.885 138.6 273.725 138.76C273.579 138.92 273.392 139 273.165 139C272.925 139 272.732 138.92 272.585 138.76C272.439 138.6 272.365 138.407 272.365 138.18V129.3C272.365 129.073 272.439 128.887 272.585 128.74C272.745 128.58 272.939 128.5 273.165 128.5C273.392 128.5 273.579 128.58 273.725 128.74C273.885 128.887 273.965 129.073 273.965 129.3V138.18ZM273.165 127.16C272.832 127.16 272.585 127.093 272.425 126.96C272.265 126.827 272.185 126.62 272.185 126.34V126.06C272.185 125.78 272.272 125.573 272.445 125.44C272.619 125.307 272.865 125.24 273.185 125.24C273.505 125.24 273.745 125.307 273.905 125.44C274.065 125.573 274.145 125.78 274.145 126.06V126.34C274.145 126.62 274.059 126.827 273.885 126.96C273.725 127.093 273.485 127.16 273.165 127.16ZM281.179 128.4C281.753 128.4 282.286 128.5 282.779 128.7C283.273 128.887 283.699 129.133 284.059 129.44C284.433 129.747 284.719 130.067 284.919 130.4C285.133 130.733 285.239 131.047 285.239 131.34L284.859 131.1V129.36C284.859 129.133 284.933 128.947 285.079 128.8C285.226 128.64 285.419 128.56 285.659 128.56C285.886 128.56 286.073 128.64 286.219 128.8C286.379 128.947 286.459 129.133 286.459 129.36V138.12C286.459 139.213 286.226 140.12 285.759 140.84C285.306 141.56 284.693 142.1 283.919 142.46C283.146 142.82 282.279 143 281.319 143C280.919 143 280.479 142.947 279.999 142.84C279.519 142.733 279.093 142.6 278.719 142.44C278.346 142.293 278.106 142.14 277.999 141.98C277.799 141.847 277.673 141.693 277.619 141.52C277.579 141.36 277.613 141.207 277.719 141.06C277.839 140.873 277.993 140.78 278.179 140.78C278.379 140.78 278.626 140.84 278.919 140.96C279.039 141 279.226 141.067 279.479 141.16C279.746 141.253 280.039 141.333 280.359 141.4C280.693 141.48 281.019 141.52 281.339 141.52C282.473 141.52 283.339 141.22 283.939 140.62C284.553 140.033 284.859 139.253 284.859 138.28V136.42L285.079 136.52C284.999 136.893 284.833 137.24 284.579 137.56C284.339 137.88 284.039 138.167 283.679 138.42C283.333 138.66 282.946 138.853 282.519 139C282.093 139.133 281.659 139.2 281.219 139.2C280.286 139.2 279.446 138.967 278.699 138.5C277.953 138.033 277.359 137.393 276.919 136.58C276.493 135.767 276.279 134.84 276.279 133.8C276.279 132.747 276.493 131.813 276.919 131C277.359 130.187 277.946 129.553 278.679 129.1C279.426 128.633 280.259 128.4 281.179 128.4ZM281.379 129.88C280.699 129.88 280.086 130.053 279.539 130.4C279.006 130.733 278.586 131.193 278.279 131.78C277.986 132.367 277.839 133.04 277.839 133.8C277.839 134.533 277.986 135.2 278.279 135.8C278.586 136.387 279.006 136.853 279.539 137.2C280.086 137.547 280.699 137.72 281.379 137.72C282.073 137.72 282.686 137.553 283.219 137.22C283.753 136.873 284.173 136.407 284.479 135.82C284.786 135.233 284.939 134.56 284.939 133.8C284.939 133.027 284.786 132.347 284.479 131.76C284.173 131.173 283.753 130.713 283.219 130.38C282.686 130.047 282.073 129.88 281.379 129.88ZM297.84 128.56C298.067 128.56 298.253 128.64 298.4 128.8C298.56 128.947 298.64 129.133 298.64 129.36V138.18C298.64 138.407 298.56 138.6 298.4 138.76C298.253 138.92 298.067 139 297.84 139C297.6 139 297.407 138.92 297.26 138.76C297.113 138.6 297.04 138.407 297.04 138.18V136.28L297.42 136.24C297.42 136.533 297.32 136.853 297.12 137.2C296.92 137.547 296.647 137.873 296.3 138.18C295.953 138.473 295.54 138.72 295.06 138.92C294.593 139.107 294.087 139.2 293.54 139.2C292.633 139.2 291.82 138.967 291.1 138.5C290.38 138.02 289.807 137.373 289.38 136.56C288.967 135.747 288.76 134.82 288.76 133.78C288.76 132.727 288.967 131.8 289.38 131C289.807 130.187 290.38 129.553 291.1 129.1C291.82 128.633 292.62 128.4 293.5 128.4C294.073 128.4 294.607 128.493 295.1 128.68C295.593 128.867 296.02 129.12 296.38 129.44C296.753 129.76 297.04 130.113 297.24 130.5C297.453 130.887 297.56 131.273 297.56 131.66L297.04 131.54V129.36C297.04 129.133 297.113 128.947 297.26 128.8C297.407 128.64 297.6 128.56 297.84 128.56ZM293.72 137.72C294.387 137.72 294.973 137.547 295.48 137.2C296 136.853 296.4 136.387 296.68 135.8C296.973 135.2 297.12 134.527 297.12 133.78C297.12 133.047 296.973 132.387 296.68 131.8C296.4 131.2 296 130.733 295.48 130.4C294.973 130.053 294.387 129.88 293.72 129.88C293.067 129.88 292.48 130.047 291.96 130.38C291.453 130.713 291.053 131.173 290.76 131.76C290.467 132.347 290.32 133.02 290.32 133.78C290.32 134.527 290.46 135.2 290.74 135.8C291.033 136.387 291.433 136.853 291.94 137.2C292.46 137.547 293.053 137.72 293.72 137.72ZM301.205 128.72H305.905C306.118 128.72 306.292 128.793 306.425 128.94C306.572 129.087 306.645 129.26 306.645 129.46C306.645 129.673 306.572 129.853 306.425 130C306.292 130.133 306.118 130.2 305.905 130.2H301.205C301.005 130.2 300.832 130.127 300.685 129.98C300.538 129.833 300.465 129.653 300.465 129.44C300.465 129.24 300.538 129.073 300.685 128.94C300.832 128.793 301.005 128.72 301.205 128.72ZM303.305 126C303.532 126 303.718 126.08 303.865 126.24C304.012 126.387 304.085 126.573 304.085 126.8V136.46C304.085 136.78 304.132 137.02 304.225 137.18C304.318 137.34 304.438 137.453 304.585 137.52C304.745 137.573 304.898 137.6 305.045 137.6C305.178 137.6 305.292 137.58 305.385 137.54C305.492 137.487 305.612 137.46 305.745 137.46C305.878 137.46 305.998 137.527 306.105 137.66C306.225 137.78 306.285 137.94 306.285 138.14C306.285 138.38 306.145 138.587 305.865 138.76C305.585 138.92 305.272 139 304.925 139C304.738 139 304.505 138.987 304.225 138.96C303.958 138.933 303.692 138.847 303.425 138.7C303.158 138.553 302.932 138.313 302.745 137.98C302.572 137.633 302.485 137.153 302.485 136.54V126.8C302.485 126.573 302.565 126.387 302.725 126.24C302.885 126.08 303.078 126 303.305 126ZM313.553 139.2C312.486 139.2 311.553 138.973 310.753 138.52C309.953 138.067 309.326 137.447 308.873 136.66C308.433 135.86 308.213 134.94 308.213 133.9C308.213 132.74 308.44 131.753 308.893 130.94C309.36 130.113 309.96 129.487 310.693 129.06C311.44 128.62 312.226 128.4 313.053 128.4C313.666 128.4 314.26 128.513 314.833 128.74C315.406 128.967 315.913 129.3 316.353 129.74C316.793 130.167 317.146 130.687 317.413 131.3C317.68 131.9 317.82 132.573 317.833 133.32C317.833 133.533 317.753 133.713 317.593 133.86C317.433 134.007 317.246 134.08 317.033 134.08H309.133L308.773 132.7H316.473L316.153 132.98V132.54C316.1 131.993 315.913 131.527 315.593 131.14C315.286 130.74 314.906 130.433 314.453 130.22C314.013 130.007 313.546 129.9 313.053 129.9C312.653 129.9 312.253 129.973 311.853 130.12C311.466 130.253 311.113 130.48 310.793 130.8C310.486 131.107 310.233 131.507 310.033 132C309.846 132.493 309.753 133.087 309.753 133.78C309.753 134.553 309.906 135.233 310.213 135.82C310.533 136.407 310.973 136.873 311.533 137.22C312.093 137.553 312.746 137.72 313.493 137.72C313.96 137.72 314.366 137.66 314.713 137.54C315.06 137.42 315.36 137.273 315.613 137.1C315.866 136.913 316.08 136.727 316.253 136.54C316.426 136.42 316.593 136.36 316.753 136.36C316.953 136.36 317.113 136.427 317.233 136.56C317.366 136.693 317.433 136.853 317.433 137.04C317.433 137.267 317.326 137.467 317.113 137.64C316.74 138.053 316.233 138.42 315.593 138.74C314.953 139.047 314.273 139.2 313.553 139.2ZM24.9159 154.72H29.6159C29.8293 154.72 30.0026 154.793 30.1359 154.94C30.2826 155.087 30.3559 155.26 30.3559 155.46C30.3559 155.673 30.2826 155.853 30.1359 156C30.0026 156.133 29.8293 156.2 29.6159 156.2H24.9159C24.7159 156.2 24.5426 156.127 24.3959 155.98C24.2493 155.833 24.1759 155.653 24.1759 155.44C24.1759 155.24 24.2493 155.073 24.3959 154.94C24.5426 154.793 24.7159 154.72 24.9159 154.72ZM27.0159 152C27.2426 152 27.4293 152.08 27.5759 152.24C27.7226 152.387 27.7959 152.573 27.7959 152.8V162.46C27.7959 162.78 27.8426 163.02 27.9359 163.18C28.0293 163.34 28.1493 163.453 28.2959 163.52C28.4559 163.573 28.6093 163.6 28.7559 163.6C28.8893 163.6 29.0026 163.58 29.0959 163.54C29.2026 163.487 29.3226 163.46 29.4559 163.46C29.5893 163.46 29.7093 163.527 29.8159 163.66C29.9359 163.78 29.9959 163.94 29.9959 164.14C29.9959 164.38 29.8559 164.587 29.5759 164.76C29.2959 164.92 28.9826 165 28.6359 165C28.4493 165 28.2159 164.987 27.9359 164.96C27.6693 164.933 27.4026 164.847 27.1359 164.7C26.8693 164.553 26.6426 164.313 26.4559 163.98C26.2826 163.633 26.1959 163.153 26.1959 162.54V152.8C26.1959 152.573 26.2759 152.387 26.4359 152.24C26.5959 152.08 26.7893 152 27.0159 152ZM37.5816 154.5C38.4616 154.5 39.1549 154.693 39.6616 155.08C40.1816 155.453 40.5482 155.96 40.7616 156.6C40.9882 157.227 41.1016 157.927 41.1016 158.7V164.18C41.1016 164.407 41.0216 164.6 40.8616 164.76C40.7149 164.92 40.5282 165 40.3016 165C40.0749 165 39.8816 164.92 39.7216 164.76C39.5749 164.6 39.5016 164.407 39.5016 164.18V158.7C39.5016 158.193 39.4282 157.74 39.2816 157.34C39.1349 156.927 38.8882 156.6 38.5416 156.36C38.2082 156.107 37.7482 155.98 37.1616 155.98C36.6149 155.98 36.1149 156.107 35.6616 156.36C35.2082 156.6 34.8482 156.927 34.5816 157.34C34.3149 157.74 34.1816 158.193 34.1816 158.7V164.18C34.1816 164.407 34.1016 164.6 33.9416 164.76C33.7949 164.92 33.6082 165 33.3816 165C33.1549 165 32.9616 164.92 32.8016 164.76C32.6549 164.6 32.5816 164.407 32.5816 164.18V151C32.5816 150.773 32.6549 150.587 32.8016 150.44C32.9616 150.28 33.1549 150.2 33.3816 150.2C33.6216 150.2 33.8149 150.28 33.9616 150.44C34.1082 150.587 34.1816 150.773 34.1816 151V156.98L33.7816 157.42C33.8482 157.073 33.9949 156.727 34.2216 156.38C34.4482 156.02 34.7349 155.7 35.0816 155.42C35.4282 155.14 35.8149 154.92 36.2416 154.76C36.6682 154.587 37.1149 154.5 37.5816 154.5ZM48.8459 165.2C47.7793 165.2 46.8459 164.973 46.0459 164.52C45.2459 164.067 44.6193 163.447 44.1659 162.66C43.7259 161.86 43.5059 160.94 43.5059 159.9C43.5059 158.74 43.7326 157.753 44.1859 156.94C44.6526 156.113 45.2526 155.487 45.9859 155.06C46.7326 154.62 47.5193 154.4 48.3459 154.4C48.9593 154.4 49.5526 154.513 50.1259 154.74C50.6993 154.967 51.2059 155.3 51.6459 155.74C52.0859 156.167 52.4393 156.687 52.7059 157.3C52.9726 157.9 53.1126 158.573 53.1259 159.32C53.1259 159.533 53.0459 159.713 52.8859 159.86C52.7259 160.007 52.5393 160.08 52.3259 160.08H44.4259L44.0659 158.7H51.7659L51.4459 158.98V158.54C51.3926 157.993 51.2059 157.527 50.8859 157.14C50.5793 156.74 50.1993 156.433 49.7459 156.22C49.3059 156.007 48.8393 155.9 48.3459 155.9C47.9459 155.9 47.5459 155.973 47.1459 156.12C46.7593 156.253 46.4059 156.48 46.0859 156.8C45.7793 157.107 45.5259 157.507 45.3259 158C45.1393 158.493 45.0459 159.087 45.0459 159.78C45.0459 160.553 45.1993 161.233 45.5059 161.82C45.8259 162.407 46.2659 162.873 46.8259 163.22C47.3859 163.553 48.0393 163.72 48.7859 163.72C49.2526 163.72 49.6593 163.66 50.0059 163.54C50.3526 163.42 50.6526 163.273 50.9059 163.1C51.1593 162.913 51.3726 162.727 51.5459 162.54C51.7193 162.42 51.8859 162.36 52.0459 162.36C52.2459 162.36 52.4059 162.427 52.5259 162.56C52.6593 162.693 52.7259 162.853 52.7259 163.04C52.7259 163.267 52.6193 163.467 52.4059 163.64C52.0326 164.053 51.5259 164.42 50.8859 164.74C50.2459 165.047 49.5659 165.2 48.8459 165.2ZM65.6386 154.4C66.3186 154.4 66.9319 154.473 67.4786 154.62C68.0253 154.767 68.4586 154.967 68.7786 155.22C69.0986 155.473 69.2586 155.76 69.2586 156.08C69.2586 156.253 69.1986 156.42 69.0786 156.58C68.9586 156.74 68.7986 156.82 68.5986 156.82C68.4119 156.82 68.2586 156.787 68.1386 156.72C68.0319 156.653 67.9253 156.567 67.8186 156.46C67.7253 156.353 67.5919 156.26 67.4186 156.18C67.2586 156.087 67.0253 156.013 66.7186 155.96C66.4119 155.907 66.1053 155.88 65.7986 155.88C65.0653 155.88 64.4186 156.053 63.8586 156.4C63.3119 156.747 62.8786 157.213 62.5586 157.8C62.2386 158.387 62.0786 159.053 62.0786 159.8C62.0786 160.547 62.2319 161.213 62.5386 161.8C62.8453 162.387 63.2719 162.853 63.8186 163.2C64.3653 163.547 64.9986 163.72 65.7186 163.72C66.1853 163.72 66.5586 163.68 66.8386 163.6C67.1186 163.52 67.3519 163.427 67.5386 163.32C67.7786 163.187 67.9586 163.053 68.0786 162.92C68.2119 162.787 68.3853 162.72 68.5986 162.72C68.8253 162.72 68.9986 162.793 69.1186 162.94C69.2519 163.087 69.3186 163.267 69.3186 163.48C69.3186 163.72 69.1519 163.973 68.8186 164.24C68.4853 164.507 68.0319 164.733 67.4586 164.92C66.8986 165.107 66.2586 165.2 65.5386 165.2C64.5253 165.2 63.6386 164.967 62.8786 164.5C62.1186 164.02 61.5253 163.373 61.0986 162.56C60.6853 161.733 60.4786 160.813 60.4786 159.8C60.4786 158.787 60.6919 157.873 61.1186 157.06C61.5586 156.247 62.1653 155.6 62.9386 155.12C63.7119 154.64 64.6119 154.4 65.6386 154.4ZM81.2297 159.8C81.2297 160.84 80.9964 161.767 80.5297 162.58C80.0764 163.393 79.4564 164.033 78.6697 164.5C77.8964 164.967 77.023 165.2 76.0497 165.2C75.0764 165.2 74.1964 164.967 73.4097 164.5C72.623 164.033 71.9964 163.393 71.5297 162.58C71.0764 161.767 70.8497 160.84 70.8497 159.8C70.8497 158.76 71.0764 157.833 71.5297 157.02C71.9964 156.207 72.623 155.567 73.4097 155.1C74.1964 154.633 75.0764 154.4 76.0497 154.4C77.023 154.4 77.8964 154.633 78.6697 155.1C79.4564 155.567 80.0764 156.207 80.5297 157.02C80.9964 157.833 81.2297 158.76 81.2297 159.8ZM79.6297 159.8C79.6297 159.027 79.4697 158.347 79.1497 157.76C78.843 157.173 78.4164 156.713 77.8697 156.38C77.3364 156.047 76.7297 155.88 76.0497 155.88C75.3697 155.88 74.7564 156.047 74.2097 156.38C73.6764 156.713 73.2497 157.173 72.9297 157.76C72.6097 158.347 72.4497 159.027 72.4497 159.8C72.4497 160.56 72.6097 161.233 72.9297 161.82C73.2497 162.407 73.6764 162.873 74.2097 163.22C74.7564 163.553 75.3697 163.72 76.0497 163.72C76.7297 163.72 77.3364 163.553 77.8697 163.22C78.4164 162.873 78.843 162.407 79.1497 161.82C79.4697 161.233 79.6297 160.56 79.6297 159.8ZM85.3963 164.18C85.3963 164.407 85.3163 164.6 85.1563 164.76C84.9963 164.92 84.8029 165 84.5763 165C84.3496 165 84.1629 164.92 84.0163 164.76C83.8696 164.6 83.7963 164.407 83.7963 164.18V151C83.7963 150.773 83.8696 150.587 84.0163 150.44C84.1763 150.28 84.3696 150.2 84.5963 150.2C84.8363 150.2 85.0296 150.28 85.1763 150.44C85.3229 150.587 85.3963 150.773 85.3963 151V164.18ZM90.2595 164.18C90.2595 164.407 90.1795 164.6 90.0195 164.76C89.8595 164.92 89.6662 165 89.4395 165C89.2129 165 89.0262 164.92 88.8795 164.76C88.7329 164.6 88.6595 164.407 88.6595 164.18V151C88.6595 150.773 88.7329 150.587 88.8795 150.44C89.0395 150.28 89.2329 150.2 89.4595 150.2C89.6995 150.2 89.8929 150.28 90.0395 150.44C90.1862 150.587 90.2595 150.773 90.2595 151V164.18ZM97.9475 165.2C96.8808 165.2 95.9475 164.973 95.1475 164.52C94.3475 164.067 93.7208 163.447 93.2675 162.66C92.8275 161.86 92.6075 160.94 92.6075 159.9C92.6075 158.74 92.8342 157.753 93.2875 156.94C93.7542 156.113 94.3542 155.487 95.0875 155.06C95.8342 154.62 96.6208 154.4 97.4475 154.4C98.0608 154.4 98.6542 154.513 99.2275 154.74C99.8008 154.967 100.308 155.3 100.748 155.74C101.188 156.167 101.541 156.687 101.808 157.3C102.074 157.9 102.214 158.573 102.228 159.32C102.228 159.533 102.148 159.713 101.988 159.86C101.828 160.007 101.641 160.08 101.428 160.08H93.5275L93.1675 158.7H100.868L100.548 158.98V158.54C100.494 157.993 100.308 157.527 99.9875 157.14C99.6808 156.74 99.3008 156.433 98.8475 156.22C98.4075 156.007 97.9408 155.9 97.4475 155.9C97.0475 155.9 96.6475 155.973 96.2475 156.12C95.8608 156.253 95.5075 156.48 95.1875 156.8C94.8808 157.107 94.6275 157.507 94.4275 158C94.2408 158.493 94.1475 159.087 94.1475 159.78C94.1475 160.553 94.3008 161.233 94.6075 161.82C94.9275 162.407 95.3675 162.873 95.9275 163.22C96.4875 163.553 97.1408 163.72 97.8875 163.72C98.3542 163.72 98.7608 163.66 99.1075 163.54C99.4542 163.42 99.7542 163.273 100.008 163.1C100.261 162.913 100.474 162.727 100.648 162.54C100.821 162.42 100.988 162.36 101.148 162.36C101.348 162.36 101.508 162.427 101.628 162.56C101.761 162.693 101.828 162.853 101.828 163.04C101.828 163.267 101.721 163.467 101.508 163.64C101.134 164.053 100.628 164.42 99.9875 164.74C99.3475 165.047 98.6675 165.2 97.9475 165.2ZM108.875 154.4C109.448 154.4 109.981 154.5 110.475 154.7C110.968 154.887 111.395 155.133 111.755 155.44C112.128 155.747 112.415 156.067 112.615 156.4C112.828 156.733 112.935 157.047 112.935 157.34L112.555 157.1V155.36C112.555 155.133 112.628 154.947 112.775 154.8C112.921 154.64 113.115 154.56 113.355 154.56C113.581 154.56 113.768 154.64 113.915 154.8C114.075 154.947 114.155 155.133 114.155 155.36V164.12C114.155 165.213 113.921 166.12 113.455 166.84C113.001 167.56 112.388 168.1 111.615 168.46C110.841 168.82 109.975 169 109.015 169C108.615 169 108.175 168.947 107.695 168.84C107.215 168.733 106.788 168.6 106.415 168.44C106.041 168.293 105.801 168.14 105.695 167.98C105.495 167.847 105.368 167.693 105.315 167.52C105.275 167.36 105.308 167.207 105.415 167.06C105.535 166.873 105.688 166.78 105.875 166.78C106.075 166.78 106.321 166.84 106.615 166.96C106.735 167 106.921 167.067 107.175 167.16C107.441 167.253 107.735 167.333 108.055 167.4C108.388 167.48 108.715 167.52 109.035 167.52C110.168 167.52 111.035 167.22 111.635 166.62C112.248 166.033 112.555 165.253 112.555 164.28V162.42L112.775 162.52C112.695 162.893 112.528 163.24 112.275 163.56C112.035 163.88 111.735 164.167 111.375 164.42C111.028 164.66 110.641 164.853 110.215 165C109.788 165.133 109.355 165.2 108.915 165.2C107.981 165.2 107.141 164.967 106.395 164.5C105.648 164.033 105.055 163.393 104.615 162.58C104.188 161.767 103.975 160.84 103.975 159.8C103.975 158.747 104.188 157.813 104.615 157C105.055 156.187 105.641 155.553 106.375 155.1C107.121 154.633 107.955 154.4 108.875 154.4ZM109.075 155.88C108.395 155.88 107.781 156.053 107.235 156.4C106.701 156.733 106.281 157.193 105.975 157.78C105.681 158.367 105.535 159.04 105.535 159.8C105.535 160.533 105.681 161.2 105.975 161.8C106.281 162.387 106.701 162.853 107.235 163.2C107.781 163.547 108.395 163.72 109.075 163.72C109.768 163.72 110.381 163.553 110.915 163.22C111.448 162.873 111.868 162.407 112.175 161.82C112.481 161.233 112.635 160.56 112.635 159.8C112.635 159.027 112.481 158.347 112.175 157.76C111.868 157.173 111.448 156.713 110.915 156.38C110.381 156.047 109.768 155.88 109.075 155.88ZM121.502 165.2C120.436 165.2 119.502 164.973 118.702 164.52C117.902 164.067 117.276 163.447 116.822 162.66C116.382 161.86 116.162 160.94 116.162 159.9C116.162 158.74 116.389 157.753 116.842 156.94C117.309 156.113 117.909 155.487 118.642 155.06C119.389 154.62 120.176 154.4 121.002 154.4C121.616 154.4 122.209 154.513 122.782 154.74C123.356 154.967 123.862 155.3 124.302 155.74C124.742 156.167 125.096 156.687 125.362 157.3C125.629 157.9 125.769 158.573 125.782 159.32C125.782 159.533 125.702 159.713 125.542 159.86C125.382 160.007 125.196 160.08 124.982 160.08H117.082L116.722 158.7H124.422L124.102 158.98V158.54C124.049 157.993 123.862 157.527 123.542 157.14C123.236 156.74 122.856 156.433 122.402 156.22C121.962 156.007 121.496 155.9 121.002 155.9C120.602 155.9 120.202 155.973 119.802 156.12C119.416 156.253 119.062 156.48 118.742 156.8C118.436 157.107 118.182 157.507 117.982 158C117.796 158.493 117.702 159.087 117.702 159.78C117.702 160.553 117.856 161.233 118.162 161.82C118.482 162.407 118.922 162.873 119.482 163.22C120.042 163.553 120.696 163.72 121.442 163.72C121.909 163.72 122.316 163.66 122.662 163.54C123.009 163.42 123.309 163.273 123.562 163.1C123.816 162.913 124.029 162.727 124.202 162.54C124.376 162.42 124.542 162.36 124.702 162.36C124.902 162.36 125.062 162.427 125.182 162.56C125.316 162.693 125.382 162.853 125.382 163.04C125.382 163.267 125.276 163.467 125.062 163.64C124.689 164.053 124.182 164.42 123.542 164.74C122.902 165.047 122.222 165.2 121.502 165.2ZM142.215 154.56C142.442 154.56 142.628 154.64 142.775 154.8C142.935 154.947 143.015 155.133 143.015 155.36V164.18C143.015 164.407 142.935 164.6 142.775 164.76C142.628 164.92 142.442 165 142.215 165C141.975 165 141.782 164.92 141.635 164.76C141.488 164.6 141.415 164.407 141.415 164.18V162.28L141.795 162.24C141.795 162.533 141.695 162.853 141.495 163.2C141.295 163.547 141.022 163.873 140.675 164.18C140.328 164.473 139.915 164.72 139.435 164.92C138.968 165.107 138.462 165.2 137.915 165.2C137.008 165.2 136.195 164.967 135.475 164.5C134.755 164.02 134.182 163.373 133.755 162.56C133.342 161.747 133.135 160.82 133.135 159.78C133.135 158.727 133.342 157.8 133.755 157C134.182 156.187 134.755 155.553 135.475 155.1C136.195 154.633 136.995 154.4 137.875 154.4C138.448 154.4 138.982 154.493 139.475 154.68C139.968 154.867 140.395 155.12 140.755 155.44C141.128 155.76 141.415 156.113 141.615 156.5C141.828 156.887 141.935 157.273 141.935 157.66L141.415 157.54V155.36C141.415 155.133 141.488 154.947 141.635 154.8C141.782 154.64 141.975 154.56 142.215 154.56ZM138.095 163.72C138.762 163.72 139.348 163.547 139.855 163.2C140.375 162.853 140.775 162.387 141.055 161.8C141.348 161.2 141.495 160.527 141.495 159.78C141.495 159.047 141.348 158.387 141.055 157.8C140.775 157.2 140.375 156.733 139.855 156.4C139.348 156.053 138.762 155.88 138.095 155.88C137.442 155.88 136.855 156.047 136.335 156.38C135.828 156.713 135.428 157.173 135.135 157.76C134.842 158.347 134.695 159.02 134.695 159.78C134.695 160.527 134.835 161.2 135.115 161.8C135.408 162.387 135.808 162.853 136.315 163.2C136.835 163.547 137.428 163.72 138.095 163.72ZM154.5 150.2C154.727 150.2 154.913 150.28 155.06 150.44C155.22 150.587 155.3 150.773 155.3 151V164.18C155.3 164.407 155.22 164.6 155.06 164.76C154.913 164.92 154.727 165 154.5 165C154.26 165 154.067 164.92 153.92 164.76C153.773 164.6 153.7 164.407 153.7 164.18V162.28L154.08 162.14C154.08 162.46 153.98 162.8 153.78 163.16C153.58 163.507 153.307 163.833 152.96 164.14C152.613 164.447 152.2 164.7 151.72 164.9C151.253 165.1 150.747 165.2 150.2 165.2C149.307 165.2 148.493 164.967 147.76 164.5C147.04 164.033 146.467 163.393 146.04 162.58C145.627 161.767 145.42 160.84 145.42 159.8C145.42 158.747 145.627 157.813 146.04 157C146.467 156.187 147.04 155.553 147.76 155.1C148.48 154.633 149.28 154.4 150.16 154.4C150.72 154.4 151.247 154.493 151.74 154.68C152.233 154.867 152.66 155.12 153.02 155.44C153.393 155.76 153.687 156.113 153.9 156.5C154.113 156.887 154.22 157.273 154.22 157.66L153.7 157.54V151C153.7 150.773 153.773 150.587 153.92 150.44C154.067 150.28 154.26 150.2 154.5 150.2ZM150.38 163.72C151.047 163.72 151.633 163.553 152.14 163.22C152.66 162.873 153.06 162.407 153.34 161.82C153.633 161.22 153.78 160.547 153.78 159.8C153.78 159.04 153.633 158.367 153.34 157.78C153.06 157.193 152.66 156.733 152.14 156.4C151.633 156.053 151.047 155.88 150.38 155.88C149.727 155.88 149.14 156.053 148.62 156.4C148.113 156.733 147.713 157.193 147.42 157.78C147.127 158.367 146.98 159.04 146.98 159.8C146.98 160.533 147.127 161.2 147.42 161.8C147.713 162.387 148.113 162.853 148.62 163.2C149.14 163.547 149.727 163.72 150.38 163.72ZM163.205 154.5C164.112 154.5 164.845 154.733 165.405 155.2C165.978 155.653 166.358 156.3 166.545 157.14H166.245L166.385 156.78C166.545 156.407 166.818 156.047 167.205 155.7C167.592 155.353 168.038 155.067 168.545 154.84C169.052 154.613 169.578 154.5 170.125 154.5C171.005 154.5 171.698 154.693 172.205 155.08C172.712 155.453 173.072 155.96 173.285 156.6C173.512 157.227 173.625 157.933 173.625 158.72V164.18C173.625 164.407 173.545 164.6 173.385 164.76C173.238 164.92 173.052 165 172.825 165C172.585 165 172.392 164.92 172.245 164.76C172.098 164.6 172.025 164.407 172.025 164.18V158.76C172.025 158.24 171.945 157.773 171.785 157.36C171.638 156.933 171.392 156.6 171.045 156.36C170.712 156.107 170.252 155.98 169.665 155.98C169.118 155.98 168.618 156.107 168.165 156.36C167.712 156.6 167.352 156.933 167.085 157.36C166.818 157.773 166.685 158.24 166.685 158.76V164.18C166.685 164.407 166.612 164.6 166.465 164.76C166.318 164.92 166.125 165 165.885 165C165.658 165 165.465 164.92 165.305 164.76C165.158 164.6 165.085 164.407 165.085 164.18V158.7C165.085 158.193 165.012 157.74 164.865 157.34C164.732 156.927 164.498 156.6 164.165 156.36C163.832 156.107 163.372 155.98 162.785 155.98C162.252 155.98 161.765 156.107 161.325 156.36C160.885 156.6 160.532 156.927 160.265 157.34C159.998 157.74 159.865 158.193 159.865 158.7V164.18C159.865 164.407 159.785 164.6 159.625 164.76C159.478 164.92 159.292 165 159.065 165C158.838 165 158.645 164.92 158.485 164.76C158.338 164.6 158.265 164.407 158.265 164.18V155.46C158.265 155.233 158.338 155.047 158.485 154.9C158.645 154.74 158.838 154.66 159.065 154.66C159.305 154.66 159.498 154.74 159.645 154.9C159.792 155.047 159.865 155.233 159.865 155.46V156.98L159.425 157.46C159.478 157.113 159.612 156.767 159.825 156.42C160.052 156.073 160.338 155.753 160.685 155.46C161.032 155.167 161.418 154.933 161.845 154.76C162.272 154.587 162.725 154.5 163.205 154.5ZM178.125 164.18C178.125 164.407 178.045 164.6 177.885 164.76C177.739 164.92 177.552 165 177.325 165C177.085 165 176.892 164.92 176.745 164.76C176.599 164.6 176.525 164.407 176.525 164.18V155.3C176.525 155.073 176.599 154.887 176.745 154.74C176.905 154.58 177.099 154.5 177.325 154.5C177.552 154.5 177.739 154.58 177.885 154.74C178.045 154.887 178.125 155.073 178.125 155.3V164.18ZM177.325 153.16C176.992 153.16 176.745 153.093 176.585 152.96C176.425 152.827 176.345 152.62 176.345 152.34V152.06C176.345 151.78 176.432 151.573 176.605 151.44C176.779 151.307 177.025 151.24 177.345 151.24C177.665 151.24 177.905 151.307 178.065 151.44C178.225 151.573 178.305 151.78 178.305 152.06V152.34C178.305 152.62 178.219 152.827 178.045 152.96C177.885 153.093 177.645 153.16 177.325 153.16ZM180.42 163.36C180.3 163.187 180.246 163.007 180.26 162.82C180.273 162.62 180.386 162.447 180.6 162.3C180.733 162.207 180.886 162.167 181.06 162.18C181.246 162.193 181.413 162.28 181.56 162.44C181.933 162.88 182.36 163.233 182.84 163.5C183.32 163.753 183.906 163.88 184.6 163.88C184.92 163.867 185.24 163.813 185.56 163.72C185.88 163.627 186.146 163.467 186.36 163.24C186.586 163 186.7 162.687 186.7 162.3C186.7 161.927 186.586 161.633 186.36 161.42C186.133 161.193 185.84 161.013 185.48 160.88C185.12 160.733 184.726 160.607 184.3 160.5C183.86 160.38 183.426 160.247 183 160.1C182.573 159.94 182.186 159.747 181.84 159.52C181.506 159.28 181.233 158.987 181.02 158.64C180.82 158.28 180.72 157.847 180.72 157.34C180.72 156.74 180.88 156.22 181.2 155.78C181.533 155.34 181.973 155 182.52 154.76C183.08 154.52 183.686 154.4 184.34 154.4C184.713 154.4 185.1 154.447 185.5 154.54C185.913 154.62 186.313 154.767 186.7 154.98C187.086 155.18 187.426 155.46 187.72 155.82C187.84 155.953 187.906 156.12 187.92 156.32C187.933 156.52 187.846 156.7 187.66 156.86C187.513 156.967 187.346 157.013 187.16 157C186.986 156.987 186.84 156.92 186.72 156.8C186.44 156.467 186.086 156.213 185.66 156.04C185.246 155.853 184.786 155.76 184.28 155.76C183.96 155.76 183.646 155.807 183.34 155.9C183.033 155.993 182.773 156.153 182.56 156.38C182.36 156.593 182.26 156.893 182.26 157.28C182.273 157.64 182.393 157.933 182.62 158.16C182.846 158.387 183.153 158.573 183.54 158.72C183.926 158.853 184.353 158.987 184.82 159.12C185.246 159.227 185.653 159.353 186.04 159.5C186.44 159.633 186.8 159.813 187.12 160.04C187.44 160.267 187.693 160.56 187.88 160.92C188.066 161.267 188.16 161.707 188.16 162.24C188.16 162.853 187.986 163.387 187.64 163.84C187.293 164.28 186.833 164.62 186.26 164.86C185.7 165.087 185.093 165.2 184.44 165.2C183.706 165.2 182.98 165.06 182.26 164.78C181.553 164.5 180.94 164.027 180.42 163.36ZM189.892 163.36C189.772 163.187 189.719 163.007 189.732 162.82C189.746 162.62 189.859 162.447 190.072 162.3C190.206 162.207 190.359 162.167 190.532 162.18C190.719 162.193 190.886 162.28 191.032 162.44C191.406 162.88 191.832 163.233 192.312 163.5C192.792 163.753 193.379 163.88 194.072 163.88C194.392 163.867 194.712 163.813 195.032 163.72C195.352 163.627 195.619 163.467 195.832 163.24C196.059 163 196.172 162.687 196.172 162.3C196.172 161.927 196.059 161.633 195.832 161.42C195.606 161.193 195.312 161.013 194.952 160.88C194.592 160.733 194.199 160.607 193.772 160.5C193.332 160.38 192.899 160.247 192.472 160.1C192.046 159.94 191.659 159.747 191.312 159.52C190.979 159.28 190.706 158.987 190.492 158.64C190.292 158.28 190.192 157.847 190.192 157.34C190.192 156.74 190.352 156.22 190.672 155.78C191.006 155.34 191.446 155 191.992 154.76C192.552 154.52 193.159 154.4 193.812 154.4C194.186 154.4 194.572 154.447 194.972 154.54C195.386 154.62 195.786 154.767 196.172 154.98C196.559 155.18 196.899 155.46 197.192 155.82C197.312 155.953 197.379 156.12 197.392 156.32C197.406 156.52 197.319 156.7 197.132 156.86C196.986 156.967 196.819 157.013 196.632 157C196.459 156.987 196.312 156.92 196.192 156.8C195.912 156.467 195.559 156.213 195.132 156.04C194.719 155.853 194.259 155.76 193.752 155.76C193.432 155.76 193.119 155.807 192.812 155.9C192.506 155.993 192.246 156.153 192.032 156.38C191.832 156.593 191.732 156.893 191.732 157.28C191.746 157.64 191.866 157.933 192.092 158.16C192.319 158.387 192.626 158.573 193.012 158.72C193.399 158.853 193.826 158.987 194.292 159.12C194.719 159.227 195.126 159.353 195.512 159.5C195.912 159.633 196.272 159.813 196.592 160.04C196.912 160.267 197.166 160.56 197.352 160.92C197.539 161.267 197.632 161.707 197.632 162.24C197.632 162.853 197.459 163.387 197.112 163.84C196.766 164.28 196.306 164.62 195.732 164.86C195.172 165.087 194.566 165.2 193.912 165.2C193.179 165.2 192.452 165.06 191.732 164.78C191.026 164.5 190.412 164.027 189.892 163.36ZM201.485 164.18C201.485 164.407 201.405 164.6 201.245 164.76C201.098 164.92 200.912 165 200.685 165C200.445 165 200.252 164.92 200.105 164.76C199.958 164.6 199.885 164.407 199.885 164.18V155.3C199.885 155.073 199.958 154.887 200.105 154.74C200.265 154.58 200.458 154.5 200.685 154.5C200.912 154.5 201.098 154.58 201.245 154.74C201.405 154.887 201.485 155.073 201.485 155.3V164.18ZM200.685 153.16C200.352 153.16 200.105 153.093 199.945 152.96C199.785 152.827 199.705 152.62 199.705 152.34V152.06C199.705 151.78 199.792 151.573 199.965 151.44C200.138 151.307 200.385 151.24 200.705 151.24C201.025 151.24 201.265 151.307 201.425 151.44C201.585 151.573 201.665 151.78 201.665 152.06V152.34C201.665 152.62 201.578 152.827 201.405 152.96C201.245 153.093 201.005 153.16 200.685 153.16ZM214.179 159.8C214.179 160.84 213.946 161.767 213.479 162.58C213.026 163.393 212.406 164.033 211.619 164.5C210.846 164.967 209.972 165.2 208.999 165.2C208.026 165.2 207.146 164.967 206.359 164.5C205.572 164.033 204.946 163.393 204.479 162.58C204.026 161.767 203.799 160.84 203.799 159.8C203.799 158.76 204.026 157.833 204.479 157.02C204.946 156.207 205.572 155.567 206.359 155.1C207.146 154.633 208.026 154.4 208.999 154.4C209.972 154.4 210.846 154.633 211.619 155.1C212.406 155.567 213.026 156.207 213.479 157.02C213.946 157.833 214.179 158.76 214.179 159.8ZM212.579 159.8C212.579 159.027 212.419 158.347 212.099 157.76C211.792 157.173 211.366 156.713 210.819 156.38C210.286 156.047 209.679 155.88 208.999 155.88C208.319 155.88 207.706 156.047 207.159 156.38C206.626 156.713 206.199 157.173 205.879 157.76C205.559 158.347 205.399 159.027 205.399 159.8C205.399 160.56 205.559 161.233 205.879 161.82C206.199 162.407 206.626 162.873 207.159 163.22C207.706 163.553 208.319 163.72 208.999 163.72C209.679 163.72 210.286 163.553 210.819 163.22C211.366 162.873 211.792 162.407 212.099 161.82C212.419 161.233 212.579 160.56 212.579 159.8ZM221.725 154.4C222.632 154.4 223.345 154.587 223.865 154.96C224.385 155.333 224.752 155.833 224.965 156.46C225.192 157.087 225.305 157.787 225.305 158.56V164.18C225.305 164.407 225.225 164.6 225.065 164.76C224.919 164.92 224.732 165 224.505 165C224.279 165 224.085 164.92 223.925 164.76C223.779 164.6 223.705 164.407 223.705 164.18V158.6C223.705 158.093 223.625 157.64 223.465 157.24C223.319 156.827 223.065 156.5 222.705 156.26C222.359 156.007 221.879 155.88 221.265 155.88C220.705 155.88 220.192 156.007 219.725 156.26C219.259 156.5 218.885 156.827 218.605 157.24C218.325 157.64 218.185 158.093 218.185 158.6V164.18C218.185 164.407 218.105 164.6 217.945 164.76C217.799 164.92 217.612 165 217.385 165C217.159 165 216.965 164.92 216.805 164.76C216.659 164.6 216.585 164.407 216.585 164.18V155.46C216.585 155.233 216.659 155.047 216.805 154.9C216.965 154.74 217.159 154.66 217.385 154.66C217.625 154.66 217.819 154.74 217.965 154.9C218.112 155.047 218.185 155.233 218.185 155.46V156.88L217.785 157.32C217.852 156.973 218.005 156.627 218.245 156.28C218.485 155.92 218.785 155.6 219.145 155.32C219.505 155.04 219.905 154.82 220.345 154.66C220.785 154.487 221.245 154.4 221.725 154.4ZM238.873 154.5C239.78 154.5 240.593 154.727 241.313 155.18C242.033 155.633 242.6 156.26 243.013 157.06C243.44 157.86 243.653 158.78 243.653 159.82C243.653 160.847 243.44 161.767 243.013 162.58C242.6 163.38 242.033 164.013 241.313 164.48C240.606 164.933 239.806 165.16 238.913 165.16C238.42 165.16 237.953 165.087 237.513 164.94C237.086 164.78 236.693 164.58 236.333 164.34C235.986 164.087 235.693 163.807 235.453 163.5C235.213 163.18 235.04 162.867 234.933 162.56L235.373 162.28V168.18C235.373 168.407 235.3 168.6 235.153 168.76C235.006 168.92 234.813 169 234.573 169C234.346 169 234.153 168.92 233.993 168.76C233.846 168.613 233.773 168.42 233.773 168.18V155.4C233.773 155.173 233.846 154.987 233.993 154.84C234.153 154.68 234.346 154.6 234.573 154.6C234.813 154.6 235.006 154.68 235.153 154.84C235.3 154.987 235.373 155.173 235.373 155.4V157.18L235.073 157.02C235.166 156.687 235.326 156.367 235.553 156.06C235.793 155.753 236.08 155.487 236.413 155.26C236.76 155.02 237.14 154.833 237.553 154.7C237.98 154.567 238.42 154.5 238.873 154.5ZM238.693 155.98C238.026 155.98 237.433 156.147 236.913 156.48C236.406 156.813 236.006 157.267 235.713 157.84C235.433 158.413 235.293 159.073 235.293 159.82C235.293 160.553 235.433 161.213 235.713 161.8C236.006 162.387 236.406 162.847 236.913 163.18C237.433 163.513 238.026 163.68 238.693 163.68C239.36 163.68 239.946 163.513 240.453 163.18C240.96 162.847 241.36 162.387 241.653 161.8C241.946 161.213 242.093 160.553 242.093 159.82C242.093 159.073 241.946 158.413 241.653 157.84C241.36 157.267 240.96 156.813 240.453 156.48C239.946 156.147 239.36 155.98 238.693 155.98ZM246.858 165C246.631 165 246.438 164.92 246.278 164.76C246.131 164.6 246.058 164.407 246.058 164.18V155.46C246.058 155.233 246.131 155.047 246.278 154.9C246.438 154.74 246.631 154.66 246.858 154.66C247.098 154.66 247.291 154.74 247.438 154.9C247.585 155.047 247.658 155.233 247.658 155.46V158.1L247.418 157.68C247.498 157.267 247.638 156.867 247.838 156.48C248.051 156.08 248.318 155.727 248.638 155.42C248.958 155.1 249.325 154.853 249.738 154.68C250.151 154.493 250.605 154.4 251.098 154.4C251.391 154.4 251.658 154.473 251.898 154.62C252.151 154.753 252.278 154.947 252.278 155.2C252.278 155.48 252.205 155.687 252.058 155.82C251.911 155.953 251.745 156.02 251.558 156.02C251.385 156.02 251.218 155.987 251.058 155.92C250.898 155.84 250.698 155.8 250.458 155.8C250.125 155.8 249.791 155.893 249.458 156.08C249.138 156.253 248.838 156.507 248.558 156.84C248.291 157.173 248.071 157.553 247.898 157.98C247.738 158.393 247.658 158.84 247.658 159.32V164.18C247.658 164.407 247.578 164.6 247.418 164.76C247.271 164.92 247.085 165 246.858 165ZM263.456 159.8C263.456 160.84 263.223 161.767 262.756 162.58C262.303 163.393 261.683 164.033 260.896 164.5C260.123 164.967 259.25 165.2 258.276 165.2C257.303 165.2 256.423 164.967 255.636 164.5C254.85 164.033 254.223 163.393 253.756 162.58C253.303 161.767 253.076 160.84 253.076 159.8C253.076 158.76 253.303 157.833 253.756 157.02C254.223 156.207 254.85 155.567 255.636 155.1C256.423 154.633 257.303 154.4 258.276 154.4C259.25 154.4 260.123 154.633 260.896 155.1C261.683 155.567 262.303 156.207 262.756 157.02C263.223 157.833 263.456 158.76 263.456 159.8ZM261.856 159.8C261.856 159.027 261.696 158.347 261.376 157.76C261.07 157.173 260.643 156.713 260.096 156.38C259.563 156.047 258.956 155.88 258.276 155.88C257.596 155.88 256.983 156.047 256.436 156.38C255.903 156.713 255.476 157.173 255.156 157.76C254.836 158.347 254.676 159.027 254.676 159.8C254.676 160.56 254.836 161.233 255.156 161.82C255.476 162.407 255.903 162.873 256.436 163.22C256.983 163.553 257.596 163.72 258.276 163.72C258.956 163.72 259.563 163.553 260.096 163.22C260.643 162.873 261.07 162.407 261.376 161.82C261.696 161.233 261.856 160.56 261.856 159.8ZM270.463 154.4C271.143 154.4 271.756 154.473 272.303 154.62C272.849 154.767 273.283 154.967 273.603 155.22C273.923 155.473 274.083 155.76 274.083 156.08C274.083 156.253 274.023 156.42 273.903 156.58C273.783 156.74 273.623 156.82 273.423 156.82C273.236 156.82 273.083 156.787 272.963 156.72C272.856 156.653 272.749 156.567 272.643 156.46C272.549 156.353 272.416 156.26 272.243 156.18C272.083 156.087 271.849 156.013 271.543 155.96C271.236 155.907 270.929 155.88 270.623 155.88C269.889 155.88 269.243 156.053 268.683 156.4C268.136 156.747 267.703 157.213 267.383 157.8C267.063 158.387 266.903 159.053 266.903 159.8C266.903 160.547 267.056 161.213 267.363 161.8C267.669 162.387 268.096 162.853 268.643 163.2C269.189 163.547 269.823 163.72 270.543 163.72C271.009 163.72 271.383 163.68 271.663 163.6C271.943 163.52 272.176 163.427 272.363 163.32C272.603 163.187 272.783 163.053 272.903 162.92C273.036 162.787 273.209 162.72 273.423 162.72C273.649 162.72 273.823 162.793 273.943 162.94C274.076 163.087 274.143 163.267 274.143 163.48C274.143 163.72 273.976 163.973 273.643 164.24C273.309 164.507 272.856 164.733 272.283 164.92C271.723 165.107 271.083 165.2 270.363 165.2C269.349 165.2 268.463 164.967 267.703 164.5C266.943 164.02 266.349 163.373 265.923 162.56C265.509 161.733 265.303 160.813 265.303 159.8C265.303 158.787 265.516 157.873 265.943 157.06C266.383 156.247 266.989 155.6 267.763 155.12C268.536 154.64 269.436 154.4 270.463 154.4ZM281.014 165.2C279.947 165.2 279.014 164.973 278.214 164.52C277.414 164.067 276.787 163.447 276.334 162.66C275.894 161.86 275.674 160.94 275.674 159.9C275.674 158.74 275.901 157.753 276.354 156.94C276.821 156.113 277.421 155.487 278.154 155.06C278.901 154.62 279.687 154.4 280.514 154.4C281.127 154.4 281.721 154.513 282.294 154.74C282.867 154.967 283.374 155.3 283.814 155.74C284.254 156.167 284.607 156.687 284.874 157.3C285.141 157.9 285.281 158.573 285.294 159.32C285.294 159.533 285.214 159.713 285.054 159.86C284.894 160.007 284.707 160.08 284.494 160.08H276.594L276.234 158.7H283.934L283.614 158.98V158.54C283.561 157.993 283.374 157.527 283.054 157.14C282.747 156.74 282.367 156.433 281.914 156.22C281.474 156.007 281.007 155.9 280.514 155.9C280.114 155.9 279.714 155.973 279.314 156.12C278.927 156.253 278.574 156.48 278.254 156.8C277.947 157.107 277.694 157.507 277.494 158C277.307 158.493 277.214 159.087 277.214 159.78C277.214 160.553 277.367 161.233 277.674 161.82C277.994 162.407 278.434 162.873 278.994 163.22C279.554 163.553 280.207 163.72 280.954 163.72C281.421 163.72 281.827 163.66 282.174 163.54C282.521 163.42 282.821 163.273 283.074 163.1C283.327 162.913 283.541 162.727 283.714 162.54C283.887 162.42 284.054 162.36 284.214 162.36C284.414 162.36 284.574 162.427 284.694 162.56C284.827 162.693 284.894 162.853 284.894 163.04C284.894 163.267 284.787 163.467 284.574 163.64C284.201 164.053 283.694 164.42 283.054 164.74C282.414 165.047 281.734 165.2 281.014 165.2ZM287.119 163.36C286.999 163.187 286.945 163.007 286.959 162.82C286.972 162.62 287.085 162.447 287.299 162.3C287.432 162.207 287.585 162.167 287.759 162.18C287.945 162.193 288.112 162.28 288.259 162.44C288.632 162.88 289.059 163.233 289.539 163.5C290.019 163.753 290.605 163.88 291.299 163.88C291.619 163.867 291.939 163.813 292.259 163.72C292.579 163.627 292.845 163.467 293.059 163.24C293.285 163 293.399 162.687 293.399 162.3C293.399 161.927 293.285 161.633 293.059 161.42C292.832 161.193 292.539 161.013 292.179 160.88C291.819 160.733 291.425 160.607 290.999 160.5C290.559 160.38 290.125 160.247 289.699 160.1C289.272 159.94 288.885 159.747 288.539 159.52C288.205 159.28 287.932 158.987 287.719 158.64C287.519 158.28 287.419 157.847 287.419 157.34C287.419 156.74 287.579 156.22 287.899 155.78C288.232 155.34 288.672 155 289.219 154.76C289.779 154.52 290.385 154.4 291.039 154.4C291.412 154.4 291.799 154.447 292.199 154.54C292.612 154.62 293.012 154.767 293.399 154.98C293.785 155.18 294.125 155.46 294.419 155.82C294.539 155.953 294.605 156.12 294.619 156.32C294.632 156.52 294.545 156.7 294.359 156.86C294.212 156.967 294.045 157.013 293.859 157C293.685 156.987 293.539 156.92 293.419 156.8C293.139 156.467 292.785 156.213 292.359 156.04C291.945 155.853 291.485 155.76 290.979 155.76C290.659 155.76 290.345 155.807 290.039 155.9C289.732 155.993 289.472 156.153 289.259 156.38C289.059 156.593 288.959 156.893 288.959 157.28C288.972 157.64 289.092 157.933 289.319 158.16C289.545 158.387 289.852 158.573 290.239 158.72C290.625 158.853 291.052 158.987 291.519 159.12C291.945 159.227 292.352 159.353 292.739 159.5C293.139 159.633 293.499 159.813 293.819 160.04C294.139 160.267 294.392 160.56 294.579 160.92C294.765 161.267 294.859 161.707 294.859 162.24C294.859 162.853 294.685 163.387 294.339 163.84C293.992 164.28 293.532 164.62 292.959 164.86C292.399 165.087 291.792 165.2 291.139 165.2C290.405 165.2 289.679 165.06 288.959 164.78C288.252 164.5 287.639 164.027 287.119 163.36ZM296.591 163.36C296.471 163.187 296.418 163.007 296.431 162.82C296.445 162.62 296.558 162.447 296.771 162.3C296.905 162.207 297.058 162.167 297.231 162.18C297.418 162.193 297.585 162.28 297.731 162.44C298.105 162.88 298.531 163.233 299.011 163.5C299.491 163.753 300.078 163.88 300.771 163.88C301.091 163.867 301.411 163.813 301.731 163.72C302.051 163.627 302.318 163.467 302.531 163.24C302.758 163 302.871 162.687 302.871 162.3C302.871 161.927 302.758 161.633 302.531 161.42C302.305 161.193 302.011 161.013 301.651 160.88C301.291 160.733 300.898 160.607 300.471 160.5C300.031 160.38 299.598 160.247 299.171 160.1C298.745 159.94 298.358 159.747 298.011 159.52C297.678 159.28 297.405 158.987 297.191 158.64C296.991 158.28 296.891 157.847 296.891 157.34C296.891 156.74 297.051 156.22 297.371 155.78C297.705 155.34 298.145 155 298.691 154.76C299.251 154.52 299.858 154.4 300.511 154.4C300.885 154.4 301.271 154.447 301.671 154.54C302.085 154.62 302.485 154.767 302.871 154.98C303.258 155.18 303.598 155.46 303.891 155.82C304.011 155.953 304.078 156.12 304.091 156.32C304.105 156.52 304.018 156.7 303.831 156.86C303.685 156.967 303.518 157.013 303.331 157C303.158 156.987 303.011 156.92 302.891 156.8C302.611 156.467 302.258 156.213 301.831 156.04C301.418 155.853 300.958 155.76 300.451 155.76C300.131 155.76 299.818 155.807 299.511 155.9C299.205 155.993 298.945 156.153 298.731 156.38C298.531 156.593 298.431 156.893 298.431 157.28C298.445 157.64 298.565 157.933 298.791 158.16C299.018 158.387 299.325 158.573 299.711 158.72C300.098 158.853 300.525 158.987 300.991 159.12C301.418 159.227 301.825 159.353 302.211 159.5C302.611 159.633 302.971 159.813 303.291 160.04C303.611 160.267 303.865 160.56 304.051 160.92C304.238 161.267 304.331 161.707 304.331 162.24C304.331 162.853 304.158 163.387 303.811 163.84C303.465 164.28 303.005 164.62 302.431 164.86C301.871 165.087 301.265 165.2 300.611 165.2C299.878 165.2 299.151 165.06 298.431 164.78C297.725 164.5 297.111 164.027 296.591 163.36Z" fill="white"/>
<rect x="137" y="100" width="55" height="2" fill="white"/>
</svg>
