<svg width="499" height="93" viewBox="0 0 499 93" fill="none" xmlns="http://www.w3.org/2000/svg">
<path d="M10.4588 80V49.31H1.05377V42.875H27.1538V49.31H17.7263V80H10.4588ZM39.6205 80.72C37.1305 80.72 34.8955 80.1875 32.9155 79.1225C30.9505 78.0425 29.3905 76.58 28.2355 74.735C27.0805 72.89 26.503 70.805 26.503 68.48C26.503 66.77 26.8255 65.1725 27.4705 63.6875C28.1305 62.2025 29.0455 60.905 30.2155 59.795C31.3855 58.67 32.743 57.8 34.288 57.185C35.833 56.555 37.5055 56.24 39.3055 56.24C41.7055 56.24 43.8055 56.7425 45.6055 57.7475C47.4205 58.7375 48.8305 60.1175 49.8355 61.8875C50.8555 63.6575 51.3655 65.72 51.3655 68.075C51.3655 68.27 51.358 68.4425 51.343 68.5925C51.343 68.7275 51.3205 68.99 51.2755 69.38H33.613C33.613 70.55 33.8755 71.57 34.4005 72.44C34.9405 73.31 35.6905 73.9925 36.6505 74.4875C37.6105 74.9675 38.728 75.2075 40.003 75.2075C41.203 75.2075 42.2605 74.975 43.1755 74.51C44.1055 74.045 44.998 73.3025 45.853 72.2825L50.8255 74.78C49.7455 76.64 48.2155 78.095 46.2355 79.145C44.2555 80.195 42.0505 80.72 39.6205 80.72ZM33.8605 65.555H44.5705C44.4205 64.67 44.098 63.905 43.603 63.26C43.123 62.615 42.508 62.12 41.758 61.775C41.008 61.43 40.1605 61.2575 39.2155 61.2575C38.2105 61.2575 37.3255 61.43 36.5605 61.775C35.7955 62.12 35.1805 62.615 34.7155 63.26C34.2505 63.905 33.9655 64.67 33.8605 65.555ZM68.3759 80.72C66.6209 80.72 64.9634 80.405 63.4034 79.775C61.8584 79.145 60.4934 78.275 59.3084 77.165C58.1234 76.04 57.1934 74.7425 56.5184 73.2725C55.8434 71.7875 55.5059 70.1975 55.5059 68.5025C55.5059 66.8675 55.8209 65.315 56.4509 63.845C57.0959 62.375 57.9959 61.07 59.1509 59.93C60.3209 58.79 61.6859 57.89 63.2459 57.23C64.8209 56.57 66.5234 56.24 68.3534 56.24C69.8384 56.24 71.2634 56.45 72.6284 56.87C74.0084 57.29 75.1184 57.83 75.9584 58.49L73.5959 63.1475C72.4709 62.3225 71.0759 61.91 69.4109 61.91C67.9859 61.91 66.7784 62.225 65.7884 62.855C64.7984 63.485 64.0409 64.3025 63.5159 65.3075C63.0059 66.3125 62.7509 67.37 62.7509 68.48C62.7509 69.695 63.0284 70.805 63.5834 71.81C64.1384 72.8 64.9184 73.5875 65.9234 74.1725C66.9434 74.7575 68.1209 75.05 69.4559 75.05C70.2809 75.05 71.0534 74.9375 71.7734 74.7125C72.4934 74.4875 73.1009 74.1875 73.5959 73.8125L75.9584 78.47C75.1034 79.115 74.0009 79.6475 72.6509 80.0675C71.3009 80.5025 69.8759 80.72 68.3759 80.72ZM81.5486 80V41.3H88.4561V59.525C89.3411 58.535 90.4436 57.74 91.7636 57.14C93.0986 56.54 94.5686 56.24 96.1736 56.24C97.9436 56.24 99.4961 56.63 100.831 57.41C102.181 58.175 103.239 59.2475 104.004 60.6275C104.769 61.9925 105.151 63.59 105.151 65.42V80H98.2436V66.8825C98.2436 65.2325 97.8086 63.95 96.9386 63.035C96.0836 62.105 94.9061 61.64 93.4061 61.64C92.3861 61.64 91.5011 61.85 90.7511 62.27C90.0161 62.675 89.4461 63.2375 89.0411 63.9575C88.6511 64.6625 88.4561 65.465 88.4561 66.365V80H81.5486ZM113.828 80V42.875H126.473C129.008 42.875 131.205 43.325 133.065 44.225C134.94 45.11 136.388 46.3925 137.408 48.0725C138.443 49.7375 138.96 51.7475 138.96 54.1025C138.96 55.9625 138.63 57.6425 137.97 59.1425C137.31 60.6275 136.365 61.88 135.135 62.9C133.905 63.92 132.413 64.6775 130.658 65.1725L142.808 80H133.56L122.85 66.005H121.118V80H113.828ZM121.118 59.93H124.223C125.738 59.93 127.02 59.7125 128.07 59.2775C129.12 58.8425 129.923 58.205 130.478 57.365C131.048 56.51 131.333 55.49 131.333 54.305C131.333 52.505 130.71 51.125 129.465 50.165C128.235 49.19 126.488 48.7025 124.223 48.7025H121.118V59.93ZM157.184 80.72C154.649 80.72 152.361 80.2025 150.321 79.1675C148.281 78.1175 146.661 76.6775 145.461 74.8475C144.261 73.0025 143.661 70.88 143.661 68.48C143.661 66.08 144.254 63.965 145.439 62.135C146.639 60.29 148.259 58.85 150.299 57.815C152.354 56.765 154.649 56.24 157.184 56.24C159.734 56.24 162.029 56.765 164.069 57.815C166.109 58.85 167.721 60.29 168.906 62.135C170.106 63.965 170.706 66.08 170.706 68.48C170.706 70.88 170.106 73.0025 168.906 74.8475C167.721 76.6775 166.109 78.1175 164.069 79.1675C162.029 80.2025 159.734 80.72 157.184 80.72ZM157.206 74.825C158.376 74.825 159.441 74.555 160.401 74.015C161.361 73.475 162.119 72.7325 162.674 71.7875C163.229 70.8275 163.506 69.725 163.506 68.48C163.506 67.235 163.229 66.14 162.674 65.195C162.119 64.235 161.361 63.485 160.401 62.945C159.441 62.405 158.376 62.135 157.206 62.135C156.021 62.135 154.949 62.405 153.989 62.945C153.044 63.485 152.294 64.235 151.739 65.195C151.184 66.14 150.906 67.235 150.906 68.48C150.906 69.725 151.184 70.8275 151.739 71.7875C152.294 72.7325 153.044 73.475 153.989 74.015C154.949 74.555 156.021 74.825 157.206 74.825ZM184.342 80L172.237 56.96H180.135L186.435 70.7975L192.375 56.96H197.077L203.017 70.7975L209.317 56.96H217.215L205.11 80H200.475L194.715 66.7025L188.955 80H184.342ZM234.106 80V42.875H254.761V49.265H241.396V58.1975H254.221V64.5875H241.396V73.61H254.761V80H234.106ZM258.416 80L268.249 67.9625L259.811 56.96H267.821L272.456 63.1475L277.091 56.96H285.101L276.664 67.9625L286.496 80H278.216L272.456 72.71L266.696 80H258.416ZM290.377 91.7V56.96H297.284V59.7725C298.214 58.6475 299.369 57.7775 300.749 57.1625C302.129 56.5475 303.614 56.24 305.204 56.24C307.424 56.24 309.397 56.7725 311.122 57.8375C312.862 58.9025 314.227 60.3575 315.217 62.2025C316.222 64.0475 316.724 66.14 316.724 68.48C316.724 70.79 316.229 72.875 315.239 74.735C314.249 76.58 312.892 78.0425 311.167 79.1225C309.457 80.1875 307.522 80.72 305.362 80.72C303.787 80.72 302.302 80.3975 300.907 79.7525C299.512 79.0925 298.304 78.1625 297.284 76.9625V91.7H290.377ZM303.314 74.8475C304.514 74.8475 305.572 74.5775 306.487 74.0375C307.417 73.4825 308.144 72.7325 308.669 71.7875C309.194 70.8275 309.457 69.7325 309.457 68.5025C309.457 67.2725 309.187 66.1775 308.647 65.2175C308.107 64.2575 307.379 63.5 306.464 62.945C305.549 62.39 304.499 62.1125 303.314 62.1125C302.129 62.1125 301.064 62.39 300.119 62.945C299.189 63.5 298.454 64.2575 297.914 65.2175C297.374 66.1625 297.104 67.2575 297.104 68.5025C297.104 69.7175 297.367 70.805 297.892 71.765C298.432 72.725 299.174 73.4825 300.119 74.0375C301.064 74.5775 302.129 74.8475 303.314 74.8475ZM334.142 80.72C331.652 80.72 329.417 80.1875 327.437 79.1225C325.472 78.0425 323.912 76.58 322.757 74.735C321.602 72.89 321.025 70.805 321.025 68.48C321.025 66.77 321.347 65.1725 321.992 63.6875C322.652 62.2025 323.567 60.905 324.737 59.795C325.907 58.67 327.265 57.8 328.81 57.185C330.355 56.555 332.027 56.24 333.827 56.24C336.227 56.24 338.327 56.7425 340.127 57.7475C341.942 58.7375 343.352 60.1175 344.357 61.8875C345.377 63.6575 345.887 65.72 345.887 68.075C345.887 68.27 345.88 68.4425 345.865 68.5925C345.865 68.7275 345.842 68.99 345.797 69.38H328.135C328.135 70.55 328.397 71.57 328.922 72.44C329.462 73.31 330.212 73.9925 331.172 74.4875C332.132 74.9675 333.25 75.2075 334.525 75.2075C335.725 75.2075 336.782 74.975 337.697 74.51C338.627 74.045 339.52 73.3025 340.375 72.2825L345.347 74.78C344.267 76.64 342.737 78.095 340.757 79.145C338.777 80.195 336.572 80.72 334.142 80.72ZM328.382 65.555H339.092C338.942 64.67 338.62 63.905 338.125 63.26C337.645 62.615 337.03 62.12 336.28 61.775C335.53 61.43 334.682 61.2575 333.737 61.2575C332.732 61.2575 331.847 61.43 331.082 61.775C330.317 62.12 329.702 62.615 329.237 63.26C328.772 63.905 328.487 64.67 328.382 65.555ZM352.032 80V56.96H358.939V60.2675C359.794 58.9775 360.837 57.9875 362.067 57.2975C363.312 56.5925 364.647 56.24 366.072 56.24C366.882 56.24 367.722 56.36 368.592 56.6C369.462 56.84 370.189 57.1475 370.774 57.5225L367.894 63.35C367.384 63.005 366.784 62.735 366.094 62.54C365.419 62.33 364.789 62.225 364.204 62.225C363.304 62.225 362.449 62.4575 361.639 62.9225C360.829 63.3875 360.177 63.995 359.682 64.745C359.187 65.48 358.939 66.275 358.939 67.13V80H352.032ZM374.597 80V56.96H381.505V80H374.597ZM378.062 52.1675C377.312 52.1675 376.622 51.9875 375.992 51.6275C375.377 51.2525 374.882 50.75 374.507 50.12C374.132 49.49 373.945 48.8 373.945 48.05C373.945 47.3 374.132 46.6175 374.507 46.0025C374.882 45.3875 375.377 44.9 375.992 44.54C376.622 44.165 377.312 43.9775 378.062 43.9775C378.812 43.9775 379.495 44.165 380.11 44.54C380.725 44.9 381.212 45.3875 381.572 46.0025C381.947 46.6175 382.135 47.3 382.135 48.05C382.135 48.8 381.947 49.49 381.572 50.12C381.212 50.75 380.725 51.2525 380.11 51.6275C379.495 51.9875 378.812 52.1675 378.062 52.1675ZM400.719 80.72C398.229 80.72 395.994 80.1875 394.014 79.1225C392.049 78.0425 390.489 76.58 389.334 74.735C388.179 72.89 387.602 70.805 387.602 68.48C387.602 66.77 387.924 65.1725 388.569 63.6875C389.229 62.2025 390.144 60.905 391.314 59.795C392.484 58.67 393.842 57.8 395.387 57.185C396.932 56.555 398.604 56.24 400.404 56.24C402.804 56.24 404.904 56.7425 406.704 57.7475C408.519 58.7375 409.929 60.1175 410.934 61.8875C411.954 63.6575 412.464 65.72 412.464 68.075C412.464 68.27 412.457 68.4425 412.442 68.5925C412.442 68.7275 412.419 68.99 412.374 69.38H394.712C394.712 70.55 394.974 71.57 395.499 72.44C396.039 73.31 396.789 73.9925 397.749 74.4875C398.709 74.9675 399.827 75.2075 401.102 75.2075C402.302 75.2075 403.359 74.975 404.274 74.51C405.204 74.045 406.097 73.3025 406.952 72.2825L411.924 74.78C410.844 76.64 409.314 78.095 407.334 79.145C405.354 80.195 403.149 80.72 400.719 80.72ZM394.959 65.555H405.669C405.519 64.67 405.197 63.905 404.702 63.26C404.222 62.615 403.607 62.12 402.857 61.775C402.107 61.43 401.259 61.2575 400.314 61.2575C399.309 61.2575 398.424 61.43 397.659 61.775C396.894 62.12 396.279 62.615 395.814 63.26C395.349 63.905 395.064 64.67 394.959 65.555ZM418.609 80V56.96H425.517V59.525C426.402 58.535 427.504 57.74 428.824 57.14C430.159 56.54 431.629 56.24 433.234 56.24C435.004 56.24 436.557 56.63 437.892 57.41C439.242 58.175 440.299 59.2475 441.064 60.6275C441.829 61.9925 442.212 63.59 442.212 65.42V80H435.304V66.8825C435.304 65.2325 434.869 63.95 433.999 63.035C433.144 62.105 431.967 61.64 430.467 61.64C429.447 61.64 428.562 61.85 427.812 62.27C427.077 62.675 426.507 63.2375 426.102 63.9575C425.712 64.6625 425.517 65.465 425.517 66.365V80H418.609ZM460.676 80.72C458.921 80.72 457.263 80.405 455.703 79.775C454.158 79.145 452.793 78.275 451.608 77.165C450.423 76.04 449.493 74.7425 448.818 73.2725C448.143 71.7875 447.806 70.1975 447.806 68.5025C447.806 66.8675 448.121 65.315 448.751 63.845C449.396 62.375 450.296 61.07 451.451 59.93C452.621 58.79 453.986 57.89 455.546 57.23C457.121 56.57 458.823 56.24 460.653 56.24C462.138 56.24 463.563 56.45 464.928 56.87C466.308 57.29 467.418 57.83 468.258 58.49L465.896 63.1475C464.771 62.3225 463.376 61.91 461.711 61.91C460.286 61.91 459.078 62.225 458.088 62.855C457.098 63.485 456.341 64.3025 455.816 65.3075C455.306 66.3125 455.051 67.37 455.051 68.48C455.051 69.695 455.328 70.805 455.883 71.81C456.438 72.8 457.218 73.5875 458.223 74.1725C459.243 74.7575 460.421 75.05 461.756 75.05C462.581 75.05 463.353 74.9375 464.073 74.7125C464.793 74.4875 465.401 74.1875 465.896 73.8125L468.258 78.47C467.403 79.115 466.301 79.6475 464.951 80.0675C463.601 80.5025 462.176 80.72 460.676 80.72ZM484.918 80.72C482.428 80.72 480.193 80.1875 478.213 79.1225C476.248 78.0425 474.688 76.58 473.533 74.735C472.378 72.89 471.801 70.805 471.801 68.48C471.801 66.77 472.123 65.1725 472.768 63.6875C473.428 62.2025 474.343 60.905 475.513 59.795C476.683 58.67 478.041 57.8 479.586 57.185C481.131 56.555 482.803 56.24 484.603 56.24C487.003 56.24 489.103 56.7425 490.903 57.7475C492.718 58.7375 494.128 60.1175 495.133 61.8875C496.153 63.6575 496.663 65.72 496.663 68.075C496.663 68.27 496.656 68.4425 496.641 68.5925C496.641 68.7275 496.618 68.99 496.573 69.38H478.911C478.911 70.55 479.173 71.57 479.698 72.44C480.238 73.31 480.988 73.9925 481.948 74.4875C482.908 74.9675 484.026 75.2075 485.301 75.2075C486.501 75.2075 487.558 74.975 488.473 74.51C489.403 74.045 490.296 73.3025 491.151 72.2825L496.123 74.78C495.043 76.64 493.513 78.095 491.533 79.145C489.553 80.195 487.348 80.72 484.918 80.72ZM479.158 65.555H489.868C489.718 64.67 489.396 63.905 488.901 63.26C488.421 62.615 487.806 62.12 487.056 61.775C486.306 61.43 485.458 61.2575 484.513 61.2575C483.508 61.2575 482.623 61.43 481.858 61.775C481.093 62.12 480.478 62.615 480.013 63.26C479.548 63.905 479.263 64.67 479.158 65.555Z" fill="#FFD058"/>
<path d="M226.052 23V5.95H220.827V2.375H235.327V5.95H230.09V23H226.052ZM241.106 23V2.375H245.156V10.8875H252.869V2.375H256.906V23H252.869V14.4375H245.156V23H241.106ZM265.042 23V2.375H276.517V5.925H269.092V10.8875H276.217V14.4375H269.092V19.45H276.517V23H265.042Z" fill="white"/>
<rect x="121" y="13" width="79" height="2" fill="white"/>
<rect x="299" y="13" width="79" height="2" fill="white"/>
</svg>
